<svg aria-roledescription="er" role="graphics-document document" viewBox="0 0 363.40625 290" style="max-width: 363.406px; background-color: white;" xmlns:xlink="http://www.w3.org/1999/xlink" xmlns="http://www.w3.org/2000/svg" width="100%" id="mermaid-1685974902278"><style>#mermaid-1685974902278{font-family:"trebuchet ms",verdana,arial,sans-serif;font-size:16px;fill:#333;}#mermaid-1685974902278 .error-icon{fill:#552222;}#mermaid-1685974902278 .error-text{fill:#552222;stroke:#552222;}#mermaid-1685974902278 .edge-thickness-normal{stroke-width:2px;}#mermaid-1685974902278 .edge-thickness-thick{stroke-width:3.5px;}#mermaid-1685974902278 .edge-pattern-solid{stroke-dasharray:0;}#mermaid-1685974902278 .edge-pattern-dashed{stroke-dasharray:3;}#mermaid-1685974902278 .edge-pattern-dotted{stroke-dasharray:2;}#mermaid-1685974902278 .marker{fill:#333333;stroke:#333333;}#mermaid-1685974902278 .marker.cross{stroke:#333333;}#mermaid-1685974902278 svg{font-family:"trebuchet ms",verdana,arial,sans-serif;font-size:16px;}#mermaid-1685974902278 .entityBox{fill:#ECECFF;stroke:#9370DB;}#mermaid-1685974902278 .attributeBoxOdd{fill:#ffffff;stroke:#9370DB;}#mermaid-1685974902278 .attributeBoxEven{fill:#f2f2f2;stroke:#9370DB;}#mermaid-1685974902278 .relationshipLabelBox{fill:hsl(80, 100%, 96.2745098039%);opacity:0.7;background-color:hsl(80, 100%, 96.2745098039%);}#mermaid-1685974902278 .relationshipLabelBox rect{opacity:0.5;}#mermaid-1685974902278 .relationshipLine{stroke:#333333;}#mermaid-1685974902278 .entityTitleText{text-anchor:middle;font-size:18px;fill:#333;}#mermaid-1685974902278 :root{--mermaid-font-family:"trebuchet ms",verdana,arial,sans-serif;}</style><g/><defs><marker orient="auto" markerHeight="18" markerWidth="18" refY="9" refX="0" id="ONLY_ONE_START"><path d="M9,0 L9,18 M15,0 L15,18" fill="none" stroke="gray"/></marker></defs><defs><marker orient="auto" markerHeight="18" markerWidth="18" refY="9" refX="18" id="ONLY_ONE_END"><path d="M3,0 L3,18 M9,0 L9,18" fill="none" stroke="gray"/></marker></defs><defs><marker orient="auto" markerHeight="18" markerWidth="30" refY="9" refX="0" id="ZERO_OR_ONE_START"><circle r="6" cy="9" cx="21" fill="white" stroke="gray"/><path d="M9,0 L9,18" fill="none" stroke="gray"/></marker></defs><defs><marker orient="auto" markerHeight="18" markerWidth="30" refY="9" refX="30" id="ZERO_OR_ONE_END"><circle r="6" cy="9" cx="9" fill="white" stroke="gray"/><path d="M21,0 L21,18" fill="none" stroke="gray"/></marker></defs><defs><marker orient="auto" markerHeight="36" markerWidth="45" refY="18" refX="18" id="ONE_OR_MORE_START"><path d="M0,18 Q 18,0 36,18 Q 18,36 0,18 M42,9 L42,27" fill="none" stroke="gray"/></marker></defs><defs><marker orient="auto" markerHeight="36" markerWidth="45" refY="18" refX="27" id="ONE_OR_MORE_END"><path d="M3,9 L3,27 M9,18 Q27,0 45,18 Q27,36 9,18" fill="none" stroke="gray"/></marker></defs><defs><marker orient="auto" markerHeight="36" markerWidth="57" refY="18" refX="18" id="ZERO_OR_MORE_START"><circle r="6" cy="18" cx="48" fill="white" stroke="gray"/><path d="M0,18 Q18,0 36,18 Q18,36 0,18" fill="none" stroke="gray"/></marker></defs><defs><marker orient="auto" markerHeight="36" markerWidth="57" refY="18" refX="39" id="ZERO_OR_MORE_END"><circle r="6" cy="18" cx="9" fill="white" stroke="gray"/><path d="M21,18 Q39,0 57,18 Q39,36 21,18" fill="none" stroke="gray"/></marker></defs><path style="stroke: gray; fill: none;" marker-start="url(#ONE_OR_MORE_START)" marker-end="url(#ONE_OR_MORE_END)" stroke-dasharray="8,8" d="M142.18973214285714,95L132.10863095238093,103.33333333333333C122.02752976190476,111.66666666666667,101.86532738095237,128.33333333333334,91.78422619047619,145C81.703125,161.66666666666666,81.703125,178.33333333333334,81.703125,186.66666666666666L81.703125,195" class="er relationshipLine"/><path style="stroke: gray; fill: none;" marker-start="url(#ONE_OR_MORE_START)" marker-end="url(#ONE_OR_MORE_END)" stroke-dasharray="8,8" d="M232.91964285714286,95L243.00074404761904,103.33333333333333C253.08184523809527,111.66666666666667,273.24404761904765,128.33333333333334,283.3251488095238,145C293.40625,161.66666666666666,293.40625,178.33333333333334,293.40625,186.66666666666666L293.40625,195" class="er relationshipLine"/><g transform="translate(137.5546875,20 )" id="entity-AUTO-38987179-6149-5380-b9c0-477221476267"><rect height="75" width="100" y="0" x="0" class="er entityBox"/><text style="dominant-baseline: middle; text-anchor: middle; font-size: 12px;" transform="translate(50,37.5)" y="0" x="0" id="text-entity-AUTO-38987179-6149-5380-b9c0-477221476267" class="er entityLabel">AUTO</text></g><g transform="translate(20,195 )" id="entity-descargaindices-8a1fca96-83e4-5ead-9d47-0edf40c2d501"><rect height="75" width="123.40625" y="0" x="0" class="er entityBox"/><text style="dominant-baseline: middle; text-anchor: middle; font-size: 12px;" transform="translate(61.703125,37.5)" y="0" x="0" id="text-entity-descargaindices-8a1fca96-83e4-5ead-9d47-0edf40c2d501" class="er entityLabel">descarga_indices</text></g><g transform="translate(243.40625,195 )" id="entity-CORE-f142ad16-95e9-53a8-af5d-efb76f1648c0"><rect height="75" width="100" y="0" x="0" class="er entityBox"/><text style="dominant-baseline: middle; text-anchor: middle; font-size: 12px;" transform="translate(50,37.5)" y="0" x="0" id="text-entity-CORE-f142ad16-95e9-53a8-af5d-efb76f1648c0" class="er entityLabel">CORE</text></g><rect height="14" width="44.703125" y="129.98663330078125" x="75.0002670288086" class="er relationshipLabelBox"/><text style="text-anchor: middle; dominant-baseline: middle; font-size: 12px;" y="136.98663330078125" x="97.3518295288086" id="rel1" class="er relationshipLabel">contains</text><rect height="14" width="25.359375" y="129.9867706298828" x="265.0777282714844" class="er relationshipLabelBox"/><text style="text-anchor: middle; dominant-baseline: middle; font-size: 12px;" y="136.9867706298828" x="277.7574157714844" id="rel2" class="er relationshipLabel">uses</text></svg>