<svg aria-roledescription="er" role="graphics-document document" viewBox="0 0 560.366455078125 646" style="max-width: 560.366px; background-color: white;" xmlns:xlink="http://www.w3.org/1999/xlink" xmlns="http://www.w3.org/2000/svg" width="100%" id="mermaid-1685974907118"><style>#mermaid-1685974907118{font-family:"trebuchet ms",verdana,arial,sans-serif;font-size:16px;fill:#333;}#mermaid-1685974907118 .error-icon{fill:#552222;}#mermaid-1685974907118 .error-text{fill:#552222;stroke:#552222;}#mermaid-1685974907118 .edge-thickness-normal{stroke-width:2px;}#mermaid-1685974907118 .edge-thickness-thick{stroke-width:3.5px;}#mermaid-1685974907118 .edge-pattern-solid{stroke-dasharray:0;}#mermaid-1685974907118 .edge-pattern-dashed{stroke-dasharray:3;}#mermaid-1685974907118 .edge-pattern-dotted{stroke-dasharray:2;}#mermaid-1685974907118 .marker{fill:#333333;stroke:#333333;}#mermaid-1685974907118 .marker.cross{stroke:#333333;}#mermaid-1685974907118 svg{font-family:"trebuchet ms",verdana,arial,sans-serif;font-size:16px;}#mermaid-1685974907118 .entityBox{fill:#ECECFF;stroke:#9370DB;}#mermaid-1685974907118 .attributeBoxOdd{fill:#ffffff;stroke:#9370DB;}#mermaid-1685974907118 .attributeBoxEven{fill:#f2f2f2;stroke:#9370DB;}#mermaid-1685974907118 .relationshipLabelBox{fill:hsl(80, 100%, 96.2745098039%);opacity:0.7;background-color:hsl(80, 100%, 96.2745098039%);}#mermaid-1685974907118 .relationshipLabelBox rect{opacity:0.5;}#mermaid-1685974907118 .relationshipLine{stroke:#333333;}#mermaid-1685974907118 .entityTitleText{text-anchor:middle;font-size:18px;fill:#333;}#mermaid-1685974907118 :root{--mermaid-font-family:"trebuchet ms",verdana,arial,sans-serif;}</style><g/><defs><marker orient="auto" markerHeight="18" markerWidth="18" refY="9" refX="0" id="ONLY_ONE_START"><path d="M9,0 L9,18 M15,0 L15,18" fill="none" stroke="gray"/></marker></defs><defs><marker orient="auto" markerHeight="18" markerWidth="18" refY="9" refX="18" id="ONLY_ONE_END"><path d="M3,0 L3,18 M9,0 L9,18" fill="none" stroke="gray"/></marker></defs><defs><marker orient="auto" markerHeight="18" markerWidth="30" refY="9" refX="0" id="ZERO_OR_ONE_START"><circle r="6" cy="9" cx="21" fill="white" stroke="gray"/><path d="M9,0 L9,18" fill="none" stroke="gray"/></marker></defs><defs><marker orient="auto" markerHeight="18" markerWidth="30" refY="9" refX="30" id="ZERO_OR_ONE_END"><circle r="6" cy="9" cx="9" fill="white" stroke="gray"/><path d="M21,0 L21,18" fill="none" stroke="gray"/></marker></defs><defs><marker orient="auto" markerHeight="36" markerWidth="45" refY="18" refX="18" id="ONE_OR_MORE_START"><path d="M0,18 Q 18,0 36,18 Q 18,36 0,18 M42,9 L42,27" fill="none" stroke="gray"/></marker></defs><defs><marker orient="auto" markerHeight="36" markerWidth="45" refY="18" refX="27" id="ONE_OR_MORE_END"><path d="M3,9 L3,27 M9,18 Q27,0 45,18 Q27,36 9,18" fill="none" stroke="gray"/></marker></defs><defs><marker orient="auto" markerHeight="36" markerWidth="57" refY="18" refX="18" id="ZERO_OR_MORE_START"><circle r="6" cy="18" cx="48" fill="white" stroke="gray"/><path d="M0,18 Q18,0 36,18 Q18,36 0,18" fill="none" stroke="gray"/></marker></defs><defs><marker orient="auto" markerHeight="36" markerWidth="57" refY="18" refX="39" id="ZERO_OR_MORE_END"><circle r="6" cy="18" cx="9" fill="white" stroke="gray"/><path d="M21,18 Q39,0 57,18 Q39,36 21,18" fill="none" stroke="gray"/></marker></defs><path style="stroke: gray; fill: none;" marker-start="url(#ZERO_OR_MORE_START)" marker-end="url(#ONLY_ONE_END)" d="M72.9482421875,252L72.9482421875,260.3333333333333C72.9482421875,268.6666666666667,72.9482421875,285.3333333333333,98.0503921508789,303.8488150119752C123.15254211425781,322.36429669061715,173.35684204101562,342.7285933812343,198.45899200439453,352.9107417265429L223.56114196777344,363.09289007185146" class="er relationshipLine"/><path style="stroke: gray; fill: none;" marker-start="url(#ZERO_OR_MORE_START)" marker-end="url(#ONLY_ONE_END)" d="M277.56895446777344,252L277.56895446777344,260.3333333333333C277.56895446777344,268.6666666666667,277.56895446777344,285.3333333333333,277.56895446777344,302C277.56895446777344,318.6666666666667,277.56895446777344,335.3333333333333,277.56895446777344,343.6666666666667L277.56895446777344,352" class="er relationshipLine"/><path style="stroke: gray; fill: none;" marker-start="url(#ZERO_OR_MORE_START)" marker-end="url(#ONLY_ONE_END)" d="M484.8039245605469,252L484.8039245605469,260.3333333333333C484.8039245605469,268.6666666666667,484.8039245605469,285.3333333333333,459.2660649617513,303.89487451088877C433.72820536295575,322.45641568844417,382.65248616536456,342.91283137688833,357.11462656656903,353.14103922111036L331.57676696777344,363.36924706533244" class="er relationshipLine"/><path style="stroke: gray; fill: none;" marker-start="url(#ONLY_ONE_START)" marker-end="url(#ZERO_OR_MORE_END)" d="M277.56895446777344,86L277.56895446777344,94.33333333333333C277.56895446777344,102.66666666666667,277.56895446777344,119.33333333333333,277.56895446777344,136C277.56895446777344,152.66666666666666,277.56895446777344,169.33333333333334,277.56895446777344,177.66666666666666L277.56895446777344,186" class="er relationshipLine"/><path style="stroke: gray; fill: none;" marker-start="url(#ONLY_ONE_START)" marker-end="url(#ZERO_OR_MORE_END)" d="M277.56895446777344,418L277.56895446777344,426.3333333333333C277.56895446777344,434.6666666666667,277.56895446777344,451.3333333333333,277.56895446777344,468C277.56895446777344,484.6666666666667,277.56895446777344,501.3333333333333,277.56895446777344,509.6666666666667L277.56895446777344,518" class="er relationshipLine"/><g transform="translate(20,186 )" id="entity-CULTIVADOR-4b976107-9a93-5ea6-a689-e53ffd44865d"><rect height="66" width="105.896484375" y="0" x="0" class="er entityBox"/><text style="dominant-baseline: middle; text-anchor: middle; font-size: 12px;" transform="translate(52.9482421875,12)" y="0" x="0" id="text-entity-CULTIVADOR-4b976107-9a93-5ea6-a689-e53ffd44865d" class="er entityLabel">CULTIVADOR</text><rect height="21" width="36.096333821614586" y="24" x="0" class="er attributeBoxOdd"/><text style="dominant-baseline: middle; font-size: 10.2px;" transform="translate(5,34.5)" y="0" x="0" id="text-entity-CULTIVADOR-4b976107-9a93-5ea6-a689-e53ffd44865d-attr-1-type" class="er entityLabel">string</text><rect height="21" width="45.726704915364586" y="24" x="36.096333821614586" class="er attributeBoxOdd"/><text style="dominant-baseline: middle; font-size: 10.2px;" transform="translate(41.096333821614586,34.5)" y="0" x="0" id="text-entity-CULTIVADOR-4b976107-9a93-5ea6-a689-e53ffd44865d-attr-1-name" class="er entityLabel">nombre</text><rect height="21" width="24.073445638020832" y="24" x="81.82303873697917" class="er attributeBoxOdd"/><text style="dominant-baseline: middle; font-size: 10.2px;" transform="translate(86.82303873697917,34.5)" y="0" x="0" id="text-entity-CULTIVADOR-4b976107-9a93-5ea6-a689-e53ffd44865d-attr-1-key" class="er entityLabel"/><rect height="21" width="36.096333821614586" y="45" x="0" class="er attributeBoxEven"/><text style="dominant-baseline: middle; font-size: 10.2px;" transform="translate(5,55.5)" y="0" x="0" id="text-entity-CULTIVADOR-4b976107-9a93-5ea6-a689-e53ffd44865d-attr-2-type" class="er entityLabel">string</text><rect height="21" width="45.726704915364586" y="45" x="36.096333821614586" class="er attributeBoxEven"/><text style="dominant-baseline: middle; font-size: 10.2px;" transform="translate(41.096333821614586,55.5)" y="0" x="0" id="text-entity-CULTIVADOR-4b976107-9a93-5ea6-a689-e53ffd44865d-attr-2-name" class="er entityLabel">parent</text><rect height="21" width="24.073445638020832" y="45" x="81.82303873697917" class="er attributeBoxEven"/><text style="dominant-baseline: middle; font-size: 10.2px;" transform="translate(86.82303873697917,55.5)" y="0" x="0" id="text-entity-CULTIVADOR-4b976107-9a93-5ea6-a689-e53ffd44865d-attr-2-key" class="er entityLabel">FK</text></g><g transform="translate(223.56114196777344,352 )" id="entity-INTERESADO-82436f7b-d83d-5cd4-a2f6-bd91b5a481cd"><rect height="66" width="108.015625" y="0" x="0" class="er entityBox"/><text style="dominant-baseline: middle; text-anchor: middle; font-size: 12px;" transform="translate(54.0078125,12)" y="0" x="0" id="text-entity-INTERESADO-82436f7b-d83d-5cd4-a2f6-bd91b5a481cd" class="er entityLabel">INTERESADO</text><rect height="21" width="36.802714029947914" y="24" x="0" class="er attributeBoxOdd"/><text style="dominant-baseline: middle; font-size: 10.2px;" transform="translate(5,34.5)" y="0" x="0" id="text-entity-INTERESADO-82436f7b-d83d-5cd4-a2f6-bd91b5a481cd-attr-1-type" class="er entityLabel">string</text><rect height="21" width="46.433085123697914" y="24" x="36.802714029947914" class="er attributeBoxOdd"/><text style="dominant-baseline: middle; font-size: 10.2px;" transform="translate(41.802714029947914,34.5)" y="0" x="0" id="text-entity-INTERESADO-82436f7b-d83d-5cd4-a2f6-bd91b5a481cd-attr-1-name" class="er entityLabel">parcela</text><rect height="21" width="24.779825846354168" y="24" x="83.23579915364583" class="er attributeBoxOdd"/><text style="dominant-baseline: middle; font-size: 10.2px;" transform="translate(88.23579915364583,34.5)" y="0" x="0" id="text-entity-INTERESADO-82436f7b-d83d-5cd4-a2f6-bd91b5a481cd-attr-1-key" class="er entityLabel">FK</text><rect height="21" width="36.802714029947914" y="45" x="0" class="er attributeBoxEven"/><text style="dominant-baseline: middle; font-size: 10.2px;" transform="translate(5,55.5)" y="0" x="0" id="text-entity-INTERESADO-82436f7b-d83d-5cd4-a2f6-bd91b5a481cd-attr-2-type" class="er entityLabel">string</text><rect height="21" width="46.433085123697914" y="45" x="36.802714029947914" class="er attributeBoxEven"/><text style="dominant-baseline: middle; font-size: 10.2px;" transform="translate(41.802714029947914,55.5)" y="0" x="0" id="text-entity-INTERESADO-82436f7b-d83d-5cd4-a2f6-bd91b5a481cd-attr-2-name" class="er entityLabel">nombre</text><rect height="21" width="24.779825846354168" y="45" x="83.23579915364583" class="er attributeBoxEven"/><text style="dominant-baseline: middle; font-size: 10.2px;" transform="translate(88.23579915364583,55.5)" y="0" x="0" id="text-entity-INTERESADO-82436f7b-d83d-5cd4-a2f6-bd91b5a481cd-attr-2-key" class="er entityLabel"/></g><g transform="translate(225.896484375,186 )" id="entity-TECNICO-c6d65ed5-8e80-5727-a5f6-6300295c6726"><rect height="66" width="103.34494018554688" y="0" x="0" class="er entityBox"/><text style="dominant-baseline: middle; text-anchor: middle; font-size: 12px;" transform="translate(51.67247009277344,12)" y="0" x="0" id="text-entity-TECNICO-c6d65ed5-8e80-5727-a5f6-6300295c6726" class="er entityLabel">TECNICO</text><rect height="21" width="35.245819091796875" y="24" x="0" class="er attributeBoxOdd"/><text style="dominant-baseline: middle; font-size: 10.2px;" transform="translate(5,34.5)" y="0" x="0" id="text-entity-TECNICO-c6d65ed5-8e80-5727-a5f6-6300295c6726-attr-1-type" class="er entityLabel">string</text><rect height="21" width="44.876190185546875" y="24" x="35.245819091796875" class="er attributeBoxOdd"/><text style="dominant-baseline: middle; font-size: 10.2px;" transform="translate(40.245819091796875,34.5)" y="0" x="0" id="text-entity-TECNICO-c6d65ed5-8e80-5727-a5f6-6300295c6726-attr-1-name" class="er entityLabel">nombre</text><rect height="21" width="23.222930908203125" y="24" x="80.12200927734375" class="er attributeBoxOdd"/><text style="dominant-baseline: middle; font-size: 10.2px;" transform="translate(85.12200927734375,34.5)" y="0" x="0" id="text-entity-TECNICO-c6d65ed5-8e80-5727-a5f6-6300295c6726-attr-1-key" class="er entityLabel"/><rect height="21" width="35.245819091796875" y="45" x="0" class="er attributeBoxEven"/><text style="dominant-baseline: middle; font-size: 10.2px;" transform="translate(5,55.5)" y="0" x="0" id="text-entity-TECNICO-c6d65ed5-8e80-5727-a5f6-6300295c6726-attr-2-type" class="er entityLabel">string</text><rect height="21" width="44.876190185546875" y="45" x="35.245819091796875" class="er attributeBoxEven"/><text style="dominant-baseline: middle; font-size: 10.2px;" transform="translate(40.245819091796875,55.5)" y="0" x="0" id="text-entity-TECNICO-c6d65ed5-8e80-5727-a5f6-6300295c6726-attr-2-name" class="er entityLabel">parent</text><rect height="21" width="23.222930908203125" y="45" x="80.12200927734375" class="er attributeBoxEven"/><text style="dominant-baseline: middle; font-size: 10.2px;" transform="translate(85.12200927734375,55.5)" y="0" x="0" id="text-entity-TECNICO-c6d65ed5-8e80-5727-a5f6-6300295c6726-attr-2-key" class="er entityLabel">FK</text></g><g transform="translate(429.2414245605469,186 )" id="entity-PROPIETARIO-006514a1-4c31-5a93-afb5-ae6a6361edc0"><rect height="66" width="111.125" y="0" x="0" class="er entityBox"/><text style="dominant-baseline: middle; text-anchor: middle; font-size: 12px;" transform="translate(55.5625,12)" y="0" x="0" id="text-entity-PROPIETARIO-006514a1-4c31-5a93-afb5-ae6a6361edc0" class="er entityLabel">PROPIETARIO</text><rect height="21" width="37.83917236328125" y="24" x="0" class="er attributeBoxOdd"/><text style="dominant-baseline: middle; font-size: 10.2px;" transform="translate(5,34.5)" y="0" x="0" id="text-entity-PROPIETARIO-006514a1-4c31-5a93-afb5-ae6a6361edc0-attr-1-type" class="er entityLabel">string</text><rect height="21" width="47.46954345703125" y="24" x="37.83917236328125" class="er attributeBoxOdd"/><text style="dominant-baseline: middle; font-size: 10.2px;" transform="translate(42.83917236328125,34.5)" y="0" x="0" id="text-entity-PROPIETARIO-006514a1-4c31-5a93-afb5-ae6a6361edc0-attr-1-name" class="er entityLabel">nombre</text><rect height="21" width="25.8162841796875" y="24" x="85.3087158203125" class="er attributeBoxOdd"/><text style="dominant-baseline: middle; font-size: 10.2px;" transform="translate(90.3087158203125,34.5)" y="0" x="0" id="text-entity-PROPIETARIO-006514a1-4c31-5a93-afb5-ae6a6361edc0-attr-1-key" class="er entityLabel"/><rect height="21" width="37.83917236328125" y="45" x="0" class="er attributeBoxEven"/><text style="dominant-baseline: middle; font-size: 10.2px;" transform="translate(5,55.5)" y="0" x="0" id="text-entity-PROPIETARIO-006514a1-4c31-5a93-afb5-ae6a6361edc0-attr-2-type" class="er entityLabel">string</text><rect height="21" width="47.46954345703125" y="45" x="37.83917236328125" class="er attributeBoxEven"/><text style="dominant-baseline: middle; font-size: 10.2px;" transform="translate(42.83917236328125,55.5)" y="0" x="0" id="text-entity-PROPIETARIO-006514a1-4c31-5a93-afb5-ae6a6361edc0-attr-2-name" class="er entityLabel">parent</text><rect height="21" width="25.8162841796875" y="45" x="85.3087158203125" class="er attributeBoxEven"/><text style="dominant-baseline: middle; font-size: 10.2px;" transform="translate(90.3087158203125,55.5)" y="0" x="0" id="text-entity-PROPIETARIO-006514a1-4c31-5a93-afb5-ae6a6361edc0-attr-2-key" class="er entityLabel">FK</text></g><g transform="translate(220.11582946777344,20 )" id="entity-COOPERATIVA-0e392d62-3cf6-5081-92b7-83a8d1aeea37"><rect height="66" width="114.90625" y="0" x="0" class="er entityBox"/><text style="dominant-baseline: middle; text-anchor: middle; font-size: 12px;" transform="translate(57.453125,12)" y="0" x="0" id="text-entity-COOPERATIVA-0e392d62-3cf6-5081-92b7-83a8d1aeea37" class="er entityLabel">COOPERATIVA</text><rect height="21" width="38.26665242513021" y="24" x="0" class="er attributeBoxOdd"/><text style="dominant-baseline: middle; font-size: 10.2px;" transform="translate(5,34.5)" y="0" x="0" id="text-entity-COOPERATIVA-0e392d62-3cf6-5081-92b7-83a8d1aeea37-attr-1-type" class="er entityLabel">string</text><rect height="21" width="50.395833333333336" y="24" x="38.26665242513021" class="er attributeBoxOdd"/><text style="dominant-baseline: middle; font-size: 10.2px;" transform="translate(43.26665242513021,34.5)" y="0" x="0" id="text-entity-COOPERATIVA-0e392d62-3cf6-5081-92b7-83a8d1aeea37-attr-1-name" class="er entityLabel">nombre</text><rect height="21" width="26.243764241536457" y="24" x="88.66248575846355" class="er attributeBoxOdd"/><text style="dominant-baseline: middle; font-size: 10.2px;" transform="translate(93.66248575846355,34.5)" y="0" x="0" id="text-entity-COOPERATIVA-0e392d62-3cf6-5081-92b7-83a8d1aeea37-attr-1-key" class="er entityLabel"/><rect height="21" width="38.26665242513021" y="45" x="0" class="er attributeBoxEven"/><text style="dominant-baseline: middle; font-size: 10.2px;" transform="translate(5,55.5)" y="0" x="0" id="text-entity-COOPERATIVA-0e392d62-3cf6-5081-92b7-83a8d1aeea37-attr-2-type" class="er entityLabel">string</text><rect height="21" width="50.395833333333336" y="45" x="38.26665242513021" class="er attributeBoxEven"/><text style="dominant-baseline: middle; font-size: 10.2px;" transform="translate(43.26665242513021,55.5)" y="0" x="0" id="text-entity-COOPERATIVA-0e392d62-3cf6-5081-92b7-83a8d1aeea37-attr-2-name" class="er entityLabel">tecnicos</text><rect height="21" width="26.243764241536457" y="45" x="88.66248575846355" class="er attributeBoxEven"/><text style="dominant-baseline: middle; font-size: 10.2px;" transform="translate(93.66248575846355,55.5)" y="0" x="0" id="text-entity-COOPERATIVA-0e392d62-3cf6-5081-92b7-83a8d1aeea37-attr-2-key" class="er entityLabel">FK</text></g><g transform="translate(227.56895446777344,518 )" id="entity-PARCELA-397a2d3f-8cad-5f6f-9c32-31c208451969"><rect height="108" width="100" y="0" x="0" class="er entityBox"/><text style="dominant-baseline: middle; text-anchor: middle; font-size: 12px;" transform="translate(50,12)" y="0" x="0" id="text-entity-PARCELA-397a2d3f-8cad-5f6f-9c32-31c208451969" class="er entityLabel">PARCELA</text><rect height="21" width="48.8671875" y="24" x="0" class="er attributeBoxOdd"/><text style="dominant-baseline: middle; font-size: 10.2px;" transform="translate(5,34.5)" y="0" x="0" id="text-entity-PARCELA-397a2d3f-8cad-5f6f-9c32-31c208451969-attr-1-type" class="er entityLabel">string</text><rect height="21" width="51.1328125" y="24" x="48.8671875" class="er attributeBoxOdd"/><text style="dominant-baseline: middle; font-size: 10.2px;" transform="translate(53.8671875,34.5)" y="0" x="0" id="text-entity-PARCELA-397a2d3f-8cad-5f6f-9c32-31c208451969-attr-1-name" class="er entityLabel">idx</text><rect height="21" width="48.8671875" y="45" x="0" class="er attributeBoxEven"/><text style="dominant-baseline: middle; font-size: 10.2px;" transform="translate(5,55.5)" y="0" x="0" id="text-entity-PARCELA-397a2d3f-8cad-5f6f-9c32-31c208451969-attr-2-type" class="er entityLabel">string</text><rect height="21" width="51.1328125" y="45" x="48.8671875" class="er attributeBoxEven"/><text style="dominant-baseline: middle; font-size: 10.2px;" transform="translate(53.8671875,55.5)" y="0" x="0" id="text-entity-PARCELA-397a2d3f-8cad-5f6f-9c32-31c208451969-attr-2-name" class="er entityLabel">estacion</text><rect height="21" width="48.8671875" y="66" x="0" class="er attributeBoxOdd"/><text style="dominant-baseline: middle; font-size: 10.2px;" transform="translate(5,76.5)" y="0" x="0" id="text-entity-PARCELA-397a2d3f-8cad-5f6f-9c32-31c208451969-attr-3-type" class="er entityLabel">float</text><rect height="21" width="51.1328125" y="66" x="48.8671875" class="er attributeBoxOdd"/><text style="dominant-baseline: middle; font-size: 10.2px;" transform="translate(53.8671875,76.5)" y="0" x="0" id="text-entity-PARCELA-397a2d3f-8cad-5f6f-9c32-31c208451969-attr-3-name" class="er entityLabel">altitud</text><rect height="21" width="48.8671875" y="87" x="0" class="er attributeBoxEven"/><text style="dominant-baseline: middle; font-size: 10.2px;" transform="translate(5,97.5)" y="0" x="0" id="text-entity-PARCELA-397a2d3f-8cad-5f6f-9c32-31c208451969-attr-4-type" class="er entityLabel">polygon</text><rect height="21" width="51.1328125" y="87" x="48.8671875" class="er attributeBoxEven"/><text style="dominant-baseline: middle; font-size: 10.2px;" transform="translate(53.8671875,97.5)" y="0" x="0" id="text-entity-PARCELA-397a2d3f-8cad-5f6f-9c32-31c208451969-attr-4-name" class="er entityLabel">geom</text></g><rect height="14" width="8.671875" y="316.60498046875" x="127.44621276855469" class="er relationshipLabelBox"/><text style="text-anchor: middle; dominant-baseline: middle; font-size: 12px;" y="323.60498046875" x="131.7821502685547" id="rel1" class="er relationshipLabel">is</text><rect height="14" width="8.671875" y="295" x="273.2330322265625" class="er relationshipLabelBox"/><text style="text-anchor: middle; dominant-baseline: middle; font-size: 12px;" y="302" x="277.5689697265625" id="rel2" class="er relationshipLabel">is</text><rect height="14" width="8.671875" y="316.8655700683594" x="420.3035888671875" class="er relationshipLabelBox"/><text style="text-anchor: middle; dominant-baseline: middle; font-size: 12px;" y="323.8655700683594" x="424.6395263671875" id="rel3" class="er relationshipLabel">is</text><rect height="14" width="44.703125" y="129" x="255.2174072265625" class="er relationshipLabelBox"/><text style="text-anchor: middle; dominant-baseline: middle; font-size: 12px;" y="136" x="277.5689697265625" id="rel4" class="er relationshipLabel">contains</text><rect height="14" width="44.703125" y="461" x="255.2174072265625" class="er relationshipLabelBox"/><text style="text-anchor: middle; dominant-baseline: middle; font-size: 12px;" y="468" x="277.5689697265625" id="rel5" class="er relationshipLabel">contains</text></svg>