<svg aria-roledescription="gitGraph" role="graphics-document document" viewBox="-121.8125 -18 529.8125 263.96710205078125" height="263.96710205078125" xmlns:xlink="http://www.w3.org/1999/xlink" xmlns="http://www.w3.org/2000/svg" width="529.8125" id="mermaid-1685974899225" style="background-color: white;"><style>#mermaid-1685974899225{font-family:"trebuchet ms",verdana,arial,sans-serif;font-size:16px;fill:#333;}#mermaid-1685974899225 .error-icon{fill:#552222;}#mermaid-1685974899225 .error-text{fill:#552222;stroke:#552222;}#mermaid-1685974899225 .edge-thickness-normal{stroke-width:2px;}#mermaid-1685974899225 .edge-thickness-thick{stroke-width:3.5px;}#mermaid-1685974899225 .edge-pattern-solid{stroke-dasharray:0;}#mermaid-1685974899225 .edge-pattern-dashed{stroke-dasharray:3;}#mermaid-1685974899225 .edge-pattern-dotted{stroke-dasharray:2;}#mermaid-1685974899225 .marker{fill:#333333;stroke:#333333;}#mermaid-1685974899225 .marker.cross{stroke:#333333;}#mermaid-1685974899225 svg{font-family:"trebuchet ms",verdana,arial,sans-serif;font-size:16px;}#mermaid-1685974899225 .commit-id,#mermaid-1685974899225 .commit-msg,#mermaid-1685974899225 .branch-label{fill:lightgrey;color:lightgrey;font-family:'trebuchet ms',verdana,arial,sans-serif;font-family:var(--mermaid-font-family);}#mermaid-1685974899225 .branch-label0{fill:#ffffff;}#mermaid-1685974899225 .commit0{stroke:hsl(240, 100%, 46.2745098039%);fill:hsl(240, 100%, 46.2745098039%);}#mermaid-1685974899225 .commit-highlight0{stroke:hsl(60, 100%, 3.7254901961%);fill:hsl(60, 100%, 3.7254901961%);}#mermaid-1685974899225 .label0{fill:hsl(240, 100%, 46.2745098039%);}#mermaid-1685974899225 .arrow0{stroke:hsl(240, 100%, 46.2745098039%);}#mermaid-1685974899225 .branch-label1{fill:black;}#mermaid-1685974899225 .commit1{stroke:hsl(60, 100%, 43.5294117647%);fill:hsl(60, 100%, 43.5294117647%);}#mermaid-1685974899225 .commit-highlight1{stroke:rgb(0, 0, 160.5);fill:rgb(0, 0, 160.5);}#mermaid-1685974899225 .label1{fill:hsl(60, 100%, 43.5294117647%);}#mermaid-1685974899225 .arrow1{stroke:hsl(60, 100%, 43.5294117647%);}#mermaid-1685974899225 .branch-label2{fill:black;}#mermaid-1685974899225 .commit2{stroke:hsl(80, 100%, 46.2745098039%);fill:hsl(80, 100%, 46.2745098039%);}#mermaid-1685974899225 .commit-highlight2{stroke:rgb(48.8333333334, 0, 146.5000000001);fill:rgb(48.8333333334, 0, 146.5000000001);}#mermaid-1685974899225 .label2{fill:hsl(80, 100%, 46.2745098039%);}#mermaid-1685974899225 .arrow2{stroke:hsl(80, 100%, 46.2745098039%);}#mermaid-1685974899225 .branch-label3{fill:#ffffff;}#mermaid-1685974899225 .commit3{stroke:hsl(210, 100%, 46.2745098039%);fill:hsl(210, 100%, 46.2745098039%);}#mermaid-1685974899225 .commit-highlight3{stroke:rgb(146.5000000001, 73.2500000001, 0);fill:rgb(146.5000000001, 73.2500000001, 0);}#mermaid-1685974899225 .label3{fill:hsl(210, 100%, 46.2745098039%);}#mermaid-1685974899225 .arrow3{stroke:hsl(210, 100%, 46.2745098039%);}#mermaid-1685974899225 .branch-label4{fill:black;}#mermaid-1685974899225 .commit4{stroke:hsl(180, 100%, 46.2745098039%);fill:hsl(180, 100%, 46.2745098039%);}#mermaid-1685974899225 .commit-highlight4{stroke:rgb(146.5000000001, 0, 0);fill:rgb(146.5000000001, 0, 0);}#mermaid-1685974899225 .label4{fill:hsl(180, 100%, 46.2745098039%);}#mermaid-1685974899225 .arrow4{stroke:hsl(180, 100%, 46.2745098039%);}#mermaid-1685974899225 .branch-label5{fill:black;}#mermaid-1685974899225 .commit5{stroke:hsl(150, 100%, 46.2745098039%);fill:hsl(150, 100%, 46.2745098039%);}#mermaid-1685974899225 .commit-highlight5{stroke:rgb(146.5000000001, 0, 73.2500000001);fill:rgb(146.5000000001, 0, 73.2500000001);}#mermaid-1685974899225 .label5{fill:hsl(150, 100%, 46.2745098039%);}#mermaid-1685974899225 .arrow5{stroke:hsl(150, 100%, 46.2745098039%);}#mermaid-1685974899225 .branch-label6{fill:black;}#mermaid-1685974899225 .commit6{stroke:hsl(300, 100%, 46.2745098039%);fill:hsl(300, 100%, 46.2745098039%);}#mermaid-1685974899225 .commit-highlight6{stroke:rgb(0, 146.5000000001, 0);fill:rgb(0, 146.5000000001, 0);}#mermaid-1685974899225 .label6{fill:hsl(300, 100%, 46.2745098039%);}#mermaid-1685974899225 .arrow6{stroke:hsl(300, 100%, 46.2745098039%);}#mermaid-1685974899225 .branch-label7{fill:black;}#mermaid-1685974899225 .commit7{stroke:hsl(0, 100%, 46.2745098039%);fill:hsl(0, 100%, 46.2745098039%);}#mermaid-1685974899225 .commit-highlight7{stroke:rgb(0, 146.5000000001, 146.5000000001);fill:rgb(0, 146.5000000001, 146.5000000001);}#mermaid-1685974899225 .label7{fill:hsl(0, 100%, 46.2745098039%);}#mermaid-1685974899225 .arrow7{stroke:hsl(0, 100%, 46.2745098039%);}#mermaid-1685974899225 .branch{stroke-width:1;stroke:#333333;stroke-dasharray:2;}#mermaid-1685974899225 .commit-label{font-size:10px;fill:#000021;}#mermaid-1685974899225 .commit-label-bkg{font-size:10px;fill:#ffffde;opacity:0.5;}#mermaid-1685974899225 .tag-label{font-size:10px;fill:#131300;}#mermaid-1685974899225 .tag-label-bkg{fill:#ECECFF;stroke:hsl(240, 60%, 86.2745098039%);}#mermaid-1685974899225 .tag-hole{fill:#333;}#mermaid-1685974899225 .commit-merge{stroke:#ECECFF;fill:#ECECFF;}#mermaid-1685974899225 .commit-reverse{stroke:#ECECFF;fill:#ECECFF;stroke-width:3;}#mermaid-1685974899225 .commit-highlight-inner{stroke:#ECECFF;fill:#ECECFF;}#mermaid-1685974899225 .arrow{stroke-width:8;stroke-linecap:round;fill:none;}#mermaid-1685974899225 .gitTitleText{text-anchor:middle;font-size:18px;fill:#333;}:root{--mermaid-font-family:"trebuchet ms",verdana,arial,sans-serif;}</style><g/><g class="commit-bullets"/><g class="commit-labels"/><g><line class="branch branch0" y2="0" x2="400" y1="0" x1="0"/><rect transform="translate(-19, -8.5)" height="21" width="52.6875" y="-0.5" x="-68.6875" ry="4" rx="4" class="branchLabelBkg label0"/><g class="branchLabel"><g transform="translate(-78.6875, -9.5)" class="label branch-label0"><text><tspan class="row" x="0" dy="1em" xml:space="preserve">main</tspan></text></g></g><line class="branch branch1" y2="90" x2="400" y1="90" x1="0"/><rect transform="translate(-19, 81.5)" height="21" width="65.140625" y="-0.5" x="-81.140625" ry="4" rx="4" class="branchLabelBkg label1"/><g class="branchLabel"><g transform="translate(-91.140625, 80.5)" class="label branch-label1"><text><tspan class="row" x="0" dy="1em" xml:space="preserve">origins</tspan></text></g></g><line class="branch branch2" y2="180" x2="400" y1="180" x1="0"/><rect transform="translate(-19, 171.5)" height="21" width="78.8125" y="-0.5" x="-94.8125" ry="4" rx="4" class="branchLabelBkg label2"/><g class="branchLabel"><g transform="translate(-104.8125, 170.5)" class="label branch-label2"><text><tspan class="row" x="0" dy="1em" xml:space="preserve">featureA</tspan></text></g></g></g><g class="commit-arrows"><path class="arrow arrow1" d="M 10 0 L 10 70 A 20 20, 0, 0, 0, 30 90 L 60 90"/><path class="arrow arrow1" d="M 60 90 L 60 90  60 90 L 110 90"/><path class="arrow arrow0" d="M 10 0 L 10 0  10 0 L 160 0"/><path class="arrow arrow0" d="M 160 0 L 160 0  160 0 L 210 0"/><path class="arrow arrow0" d="M 210 0 L 210 0  210 0 L 260 0"/><path class="arrow arrow0" d="M 110 90 L 110 55 A 10 10, 0, 0, 1, 120 45 L 250 45 A 10 10, 0, 0, 0, 260 35 L 260 0"/><path class="arrow arrow0" d="M 260 0 L 260 0  260 0 L 310 0"/><path class="arrow arrow2" d="M 310 0 L 310 160 A 20 20, 0, 0, 0, 330 180 L 360 180"/></g><g class="commit-bullets"><circle class="commit 0-ba336d1 commit0" r="10" cy="0" cx="10"/><circle class="commit 1-5c351ff commit1" r="10" cy="90" cx="60"/><circle class="commit 2-92e1adf commit1" r="10" cy="90" cx="110"/><rect class="commit 3-14c0407 commit-highlight0 commit-highlight-outer" width="20" height="20" y="-10" x="150"/><rect class="commit 3-14c0407 commit0 commit-highlight-inner" width="12" height="12" y="-6" x="154"/><circle class="commit 4-17ad46d commit0" r="10" cy="0" cx="210"/><circle class="commit 5-668813c commit0" r="9" cy="0" cx="260"/><circle class="commit commit-merge 5-668813c commit0" r="6" cy="0" cx="260"/><circle class="commit 6-8bef0b2 commit0" r="10" cy="0" cx="310"/><circle class="commit 7-27b22d7 commit2" r="10" cy="180" cx="360"/></g><g class="commit-labels"><g transform="translate(-29.639082031250002, 26.40865234375) rotate(-45, 0, 0)"><rect height="15" width="52.2607421875" y="13.5" x="-16.13037109375" class="commit-label-bkg"/><text class="commit-label" y="25" x="-14.13037109375">0-ba336d1</text></g><g transform="translate(-27.15943359375, 24.19001953125) rotate(-45, 50, 90)"><rect height="15" width="45.7353515625" y="103.5" x="37.13232421875" class="commit-label-bkg"/><text class="commit-label" y="115" x="39.13232421875">1-5c351ff</text></g><polygon points="34.16015625,72.8&#10;          34.16015625,68.8&#10;          42.16015625,63.3&#10;          77.83984375,63.3&#10;          77.83984375,78.3&#10;          42.16015625,78.3" class="tag-label-bkg"/><circle class="tag-hole" r="1.5" cy="70.8" cx="38.16015625"/><text x="46.16015625" class="tag-label" y="74">v1.0.0</text><g transform="translate(-28.49908203125, 25.388652343750003) rotate(-45, 100, 90)"><rect height="15" width="49.2607421875" y="103.5" x="85.36962890625" class="commit-label-bkg"/><text class="commit-label" y="115" x="87.36962890625">2-92e1adf</text></g><g transform="translate(-29.425703125000002, 26.217734375) rotate(-45, 150, 0)"><rect height="15" width="51.69921875" y="13.5" x="134.150390625" class="commit-label-bkg"/><text class="commit-label" y="25" x="136.150390625">3-14c0407</text></g><g transform="translate(-29.474687499999998, 26.2615625) rotate(-45, 200, 0)"><rect height="15" width="51.828125" y="13.5" x="184.0859375" class="commit-label-bkg"/><text class="commit-label" y="25" x="186.0859375">4-17ad46d</text></g><g transform="translate(-28.581464843750002, 25.46236328125) rotate(-45, 300, 0)"><rect height="15" width="49.4775390625" y="13.5" x="285.26123046875" class="commit-label-bkg"/><text class="commit-label" y="25" x="287.26123046875">6-8bef0b2</text></g><g transform="translate(-29.639082031250002, 26.40865234375) rotate(-45, 350, 180)"><rect height="15" width="52.2607421875" y="193.5" x="333.86962890625" class="commit-label-bkg"/><text class="commit-label" y="205" x="335.86962890625">7-27b22d7</text></g></g></svg>