<svg aria-roledescription="er" role="graphics-document document" viewBox="0 0 830.4879760742188 751" style="max-width: 830.488px; background-color: white;" xmlns:xlink="http://www.w3.org/1999/xlink" xmlns="http://www.w3.org/2000/svg" width="100%" id="mermaid-1685974908746"><style>#mermaid-1685974908746{font-family:"trebuchet ms",verdana,arial,sans-serif;font-size:16px;fill:#333;}#mermaid-1685974908746 .error-icon{fill:#552222;}#mermaid-1685974908746 .error-text{fill:#552222;stroke:#552222;}#mermaid-1685974908746 .edge-thickness-normal{stroke-width:2px;}#mermaid-1685974908746 .edge-thickness-thick{stroke-width:3.5px;}#mermaid-1685974908746 .edge-pattern-solid{stroke-dasharray:0;}#mermaid-1685974908746 .edge-pattern-dashed{stroke-dasharray:3;}#mermaid-1685974908746 .edge-pattern-dotted{stroke-dasharray:2;}#mermaid-1685974908746 .marker{fill:#333333;stroke:#333333;}#mermaid-1685974908746 .marker.cross{stroke:#333333;}#mermaid-1685974908746 svg{font-family:"trebuchet ms",verdana,arial,sans-serif;font-size:16px;}#mermaid-1685974908746 .entityBox{fill:#ECECFF;stroke:#9370DB;}#mermaid-1685974908746 .attributeBoxOdd{fill:#ffffff;stroke:#9370DB;}#mermaid-1685974908746 .attributeBoxEven{fill:#f2f2f2;stroke:#9370DB;}#mermaid-1685974908746 .relationshipLabelBox{fill:hsl(80, 100%, 96.2745098039%);opacity:0.7;background-color:hsl(80, 100%, 96.2745098039%);}#mermaid-1685974908746 .relationshipLabelBox rect{opacity:0.5;}#mermaid-1685974908746 .relationshipLine{stroke:#333333;}#mermaid-1685974908746 .entityTitleText{text-anchor:middle;font-size:18px;fill:#333;}#mermaid-1685974908746 :root{--mermaid-font-family:"trebuchet ms",verdana,arial,sans-serif;}</style><g/><defs><marker orient="auto" markerHeight="18" markerWidth="18" refY="9" refX="0" id="ONLY_ONE_START"><path d="M9,0 L9,18 M15,0 L15,18" fill="none" stroke="gray"/></marker></defs><defs><marker orient="auto" markerHeight="18" markerWidth="18" refY="9" refX="18" id="ONLY_ONE_END"><path d="M3,0 L3,18 M9,0 L9,18" fill="none" stroke="gray"/></marker></defs><defs><marker orient="auto" markerHeight="18" markerWidth="30" refY="9" refX="0" id="ZERO_OR_ONE_START"><circle r="6" cy="9" cx="21" fill="white" stroke="gray"/><path d="M9,0 L9,18" fill="none" stroke="gray"/></marker></defs><defs><marker orient="auto" markerHeight="18" markerWidth="30" refY="9" refX="30" id="ZERO_OR_ONE_END"><circle r="6" cy="9" cx="9" fill="white" stroke="gray"/><path d="M21,0 L21,18" fill="none" stroke="gray"/></marker></defs><defs><marker orient="auto" markerHeight="36" markerWidth="45" refY="18" refX="18" id="ONE_OR_MORE_START"><path d="M0,18 Q 18,0 36,18 Q 18,36 0,18 M42,9 L42,27" fill="none" stroke="gray"/></marker></defs><defs><marker orient="auto" markerHeight="36" markerWidth="45" refY="18" refX="27" id="ONE_OR_MORE_END"><path d="M3,9 L3,27 M9,18 Q27,0 45,18 Q27,36 9,18" fill="none" stroke="gray"/></marker></defs><defs><marker orient="auto" markerHeight="36" markerWidth="57" refY="18" refX="18" id="ZERO_OR_MORE_START"><circle r="6" cy="18" cx="48" fill="white" stroke="gray"/><path d="M0,18 Q18,0 36,18 Q18,36 0,18" fill="none" stroke="gray"/></marker></defs><defs><marker orient="auto" markerHeight="36" markerWidth="57" refY="18" refX="39" id="ZERO_OR_MORE_END"><circle r="6" cy="18" cx="9" fill="white" stroke="gray"/><path d="M21,18 Q39,0 57,18 Q39,36 21,18" fill="none" stroke="gray"/></marker></defs><path style="stroke: gray; fill: none;" marker-start="url(#ONLY_ONE_START)" marker-end="url(#ZERO_OR_MORE_END)" d="M144.30691528320312,255.9796788614089L155.97358194986978,253.0663990511741C167.64024861653647,250.15311924093928,190.97358194986978,244.32655962046965,205.55691528320312,241.41327981023483C220.14024861653647,238.5,225.97358194986978,238.5,231.80691528320312,244C237.64024861653647,249.5,243.47358194986978,260.5,243.47358194986978,271.5C243.47358194986978,282.5,237.64024861653647,293.5,231.80691528320312,299C225.97358194986978,304.5,220.14024861653647,304.5,205.55691528320312,301.5867201897652C190.97358194986978,298.67344037953035,167.64024861653647,292.84688075906075,155.97358194986978,289.9336009488259L144.30691528320312,287.0203211385911" class="er relationshipLine"/><path style="stroke: gray; fill: none;" marker-start="url(#ONLY_ONE_START)" marker-end="url(#ZERO_OR_MORE_END)" d="M82.15345764160156,304.5L82.15345764160156,318.0833333333333C82.15345764160156,331.6666666666667,82.15345764160156,358.8333333333333,86.15986789801183,380.75C90.16627815442207,402.6666666666667,98.1790986672426,419.3333333333333,102.18550892365285,427.6666666666667L106.19191918006311,436" class="er relationshipLine"/><path style="stroke: gray; fill: none;" marker-start="url(#ONLY_ONE_START)" marker-end="url(#ZERO_OR_MORE_END)" d="M362.3147277832031,96.5L362.3147277832031,106.58333333333333C362.3147277832031,116.66666666666667,362.3147277832031,136.83333333333334,365.9537379724316,155.25C369.5927481616602,173.66666666666666,376.8707685401173,190.33333333333334,380.5097787293458,198.66666666666666L384.1487889185743,207" class="er relationshipLine"/><path style="stroke: gray; fill: none;" marker-start="url(#ONLY_ONE_START)" marker-end="url(#ZERO_OR_MORE_END)" d="M578.3506360793497,107L568.7053780377231,115.33333333333333C559.0601199960964,123.66666666666667,539.7696039128431,140.33333333333334,521.7649212801521,157.5157377957003C503.76023864746094,174.69814225806726,487.04138946533203,192.39628451613453,478.6819648742676,201.24535564516816L470.3225402832031,210.0944267742018" class="er relationshipLine"/><path style="stroke: gray; fill: none;" marker-start="url(#ZERO_OR_MORE_START)" marker-end="url(#ONLY_ONE_END)" d="M651.9609151422021,107L656.4172431279418,115.33333333333333C660.8735711136816,123.66666666666667,669.7862270851612,140.33333333333334,674.2425550709008,158.75C678.6988830566406,177.16666666666666,678.6988830566406,197.33333333333334,678.6988830566406,207.41666666666666L678.6988830566406,217.5" class="er relationshipLine"/><path style="stroke: gray; fill: none;" marker-start="url(#ONLY_ONE_START)" marker-end="url(#ZERO_OR_MORE_END)" d="M702.2796690828415,325.5L706.6828714118079,335.5833333333333C711.0860737407744,345.6666666666667,719.8924783987076,365.8333333333333,724.2956807276742,389.5C728.6988830566406,413.1666666666667,728.6988830566406,440.3333333333333,728.6988830566406,453.9166666666667L728.6988830566406,467.5" class="er relationshipLine"/><path style="stroke: gray; fill: none;" marker-start="url(#ONLY_ONE_START)" marker-end="url(#ZERO_OR_MORE_END)" d="M620.2671051025391,301.46160180623264L592.7889963785807,315.5513348385272C565.3108876546224,329.64106787082176,510.35467020670575,357.8205339354109,441.9490102132161,385.07819035809894C373.54335021972656,412.33584678078705,291.68824768066406,438.6716935615741,250.7606964111328,451.8396169519676L209.83314514160156,465.0075403423611" class="er relationshipLine"/><path style="stroke: gray; fill: none;" marker-start="url(#ONLY_ONE_START)" marker-end="url(#ZERO_OR_MORE_END)" d="M728.6988830566406,512.5L728.6988830566406,526.0833333333334C728.6988830566406,539.6666666666666,728.6988830566406,566.8333333333334,728.6988830566406,588.75C728.6988830566406,610.6666666666666,728.6988830566406,627.3333333333334,728.6988830566406,635.6666666666666L728.6988830566406,644" class="er relationshipLine"/><g transform="translate(20,238.5 )" id="entity-CULTIVO-e4b9731a-f9ba-53ce-81f3-5f99d48f381b"><rect height="66" width="124.30691528320312" y="0" x="0" class="er entityBox"/><text style="dominant-baseline: middle; text-anchor: middle; font-size: 12px;" transform="translate(62.15345764160156,12)" y="0" x="0" id="text-entity-CULTIVO-e4b9731a-f9ba-53ce-81f3-5f99d48f381b" class="er entityLabel">CULTIVO</text><rect height="21" width="35.245819091796875" y="24" x="0" class="er attributeBoxOdd"/><text style="dominant-baseline: middle; font-size: 10.2px;" transform="translate(5,34.5)" y="0" x="0" id="text-entity-CULTIVO-e4b9731a-f9ba-53ce-81f3-5f99d48f381b-attr-1-type" class="er entityLabel">string</text><rect height="21" width="65.83816528320312" y="24" x="35.245819091796875" class="er attributeBoxOdd"/><text style="dominant-baseline: middle; font-size: 10.2px;" transform="translate(40.245819091796875,34.5)" y="0" x="0" id="text-entity-CULTIVO-e4b9731a-f9ba-53ce-81f3-5f99d48f381b-attr-1-name" class="er entityLabel">nombre</text><rect height="21" width="23.222930908203125" y="24" x="101.083984375" class="er attributeBoxOdd"/><text style="dominant-baseline: middle; font-size: 10.2px;" transform="translate(106.083984375,34.5)" y="0" x="0" id="text-entity-CULTIVO-e4b9731a-f9ba-53ce-81f3-5f99d48f381b-attr-1-key" class="er entityLabel">FK</text><rect height="21" width="35.245819091796875" y="45" x="0" class="er attributeBoxEven"/><text style="dominant-baseline: middle; font-size: 10.2px;" transform="translate(5,55.5)" y="0" x="0" id="text-entity-CULTIVO-e4b9731a-f9ba-53ce-81f3-5f99d48f381b-attr-2-type" class="er entityLabel">string</text><rect height="21" width="65.83816528320312" y="45" x="35.245819091796875" class="er attributeBoxEven"/><text style="dominant-baseline: middle; font-size: 10.2px;" transform="translate(40.245819091796875,55.5)" y="0" x="0" id="text-entity-CULTIVO-e4b9731a-f9ba-53ce-81f3-5f99d48f381b-attr-2-name" class="er entityLabel">es_variedad</text><rect height="21" width="23.222930908203125" y="45" x="101.083984375" class="er attributeBoxEven"/><text style="dominant-baseline: middle; font-size: 10.2px;" transform="translate(106.083984375,55.5)" y="0" x="0" id="text-entity-CULTIVO-e4b9731a-f9ba-53ce-81f3-5f99d48f381b-attr-2-key" class="er entityLabel">FK</text></g><g transform="translate(54.47377014160156,436 )" id="entity-MIRARFENOLOGICO-059a82cc-d1ec-505c-9e2e-c63d973e53f3"><rect height="108" width="155.359375" y="0" x="0" class="er entityBox"/><text style="dominant-baseline: middle; text-anchor: middle; font-size: 12px;" transform="translate(77.6796875,12)" y="0" x="0" id="text-entity-MIRARFENOLOGICO-059a82cc-d1ec-505c-9e2e-c63d973e53f3" class="er entityLabel">MIRAR_FENOLOGICO</text><rect height="21" width="52.960357666015625" y="24" x="0" class="er attributeBoxOdd"/><text style="dominant-baseline: middle; font-size: 10.2px;" transform="translate(5,34.5)" y="0" x="0" id="text-entity-MIRARFENOLOGICO-059a82cc-d1ec-505c-9e2e-c63d973e53f3-attr-1-type" class="er entityLabel">string</text><rect height="21" width="61.4615478515625" y="24" x="52.960357666015625" class="er attributeBoxOdd"/><text style="dominant-baseline: middle; font-size: 10.2px;" transform="translate(57.960357666015625,34.5)" y="0" x="0" id="text-entity-MIRARFENOLOGICO-059a82cc-d1ec-505c-9e2e-c63d973e53f3-attr-1-name" class="er entityLabel">cultivo</text><rect height="21" width="40.937469482421875" y="24" x="114.42190551757812" class="er attributeBoxOdd"/><text style="dominant-baseline: middle; font-size: 10.2px;" transform="translate(119.42190551757812,34.5)" y="0" x="0" id="text-entity-MIRARFENOLOGICO-059a82cc-d1ec-505c-9e2e-c63d973e53f3-attr-1-key" class="er entityLabel">FK</text><rect height="21" width="52.960357666015625" y="45" x="0" class="er attributeBoxEven"/><text style="dominant-baseline: middle; font-size: 10.2px;" transform="translate(5,55.5)" y="0" x="0" id="text-entity-MIRARFENOLOGICO-059a82cc-d1ec-505c-9e2e-c63d973e53f3-attr-2-type" class="er entityLabel">string</text><rect height="21" width="61.4615478515625" y="45" x="52.960357666015625" class="er attributeBoxEven"/><text style="dominant-baseline: middle; font-size: 10.2px;" transform="translate(57.960357666015625,55.5)" y="0" x="0" id="text-entity-MIRARFENOLOGICO-059a82cc-d1ec-505c-9e2e-c63d973e53f3-attr-2-name" class="er entityLabel">parcela</text><rect height="21" width="40.937469482421875" y="45" x="114.42190551757812" class="er attributeBoxEven"/><text style="dominant-baseline: middle; font-size: 10.2px;" transform="translate(119.42190551757812,55.5)" y="0" x="0" id="text-entity-MIRARFENOLOGICO-059a82cc-d1ec-505c-9e2e-c63d973e53f3-attr-2-key" class="er entityLabel">FK</text><rect height="21" width="52.960357666015625" y="66" x="0" class="er attributeBoxOdd"/><text style="dominant-baseline: middle; font-size: 10.2px;" transform="translate(5,76.5)" y="0" x="0" id="text-entity-MIRARFENOLOGICO-059a82cc-d1ec-505c-9e2e-c63d973e53f3-attr-3-type" class="er entityLabel">date</text><rect height="21" width="61.4615478515625" y="66" x="52.960357666015625" class="er attributeBoxOdd"/><text style="dominant-baseline: middle; font-size: 10.2px;" transform="translate(57.960357666015625,76.5)" y="0" x="0" id="text-entity-MIRARFENOLOGICO-059a82cc-d1ec-505c-9e2e-c63d973e53f3-attr-3-name" class="er entityLabel">fecha</text><rect height="21" width="40.937469482421875" y="66" x="114.42190551757812" class="er attributeBoxOdd"/><text style="dominant-baseline: middle; font-size: 10.2px;" transform="translate(119.42190551757812,76.5)" y="0" x="0" id="text-entity-MIRARFENOLOGICO-059a82cc-d1ec-505c-9e2e-c63d973e53f3-attr-3-key" class="er entityLabel"/><rect height="21" width="52.960357666015625" y="87" x="0" class="er attributeBoxEven"/><text style="dominant-baseline: middle; font-size: 10.2px;" transform="translate(5,97.5)" y="0" x="0" id="text-entity-MIRARFENOLOGICO-059a82cc-d1ec-505c-9e2e-c63d973e53f3-attr-4-type" class="er entityLabel">string</text><rect height="21" width="61.4615478515625" y="87" x="52.960357666015625" class="er attributeBoxEven"/><text style="dominant-baseline: middle; font-size: 10.2px;" transform="translate(57.960357666015625,97.5)" y="0" x="0" id="text-entity-MIRARFENOLOGICO-059a82cc-d1ec-505c-9e2e-c63d973e53f3-attr-4-name" class="er entityLabel">estado</text><rect height="21" width="40.937469482421875" y="87" x="114.42190551757812" class="er attributeBoxEven"/><text style="dominant-baseline: middle; font-size: 10.2px;" transform="translate(119.42190551757812,97.5)" y="0" x="0" id="text-entity-MIRARFENOLOGICO-059a82cc-d1ec-505c-9e2e-c63d973e53f3-attr-4-key" class="er entityLabel"/></g><g transform="translate(302.3147277832031,30.5 )" id="entity-INDICE-368871f2-ca19-5bbc-8e0f-410080d17d51"><rect height="66" width="120" y="0" x="0" class="er entityBox"/><text style="dominant-baseline: middle; text-anchor: middle; font-size: 12px;" transform="translate(60,12)" y="0" x="0" id="text-entity-INDICE-368871f2-ca19-5bbc-8e0f-410080d17d51" class="er entityLabel">INDICE</text><rect height="21" width="35.245819091796875" y="24" x="0" class="er attributeBoxOdd"/><text style="dominant-baseline: middle; font-size: 10.2px;" transform="translate(5,34.5)" y="0" x="0" id="text-entity-INDICE-368871f2-ca19-5bbc-8e0f-410080d17d51-attr-1-type" class="er entityLabel">string</text><rect height="21" width="61.53125" y="24" x="35.245819091796875" class="er attributeBoxOdd"/><text style="dominant-baseline: middle; font-size: 10.2px;" transform="translate(40.245819091796875,34.5)" y="0" x="0" id="text-entity-INDICE-368871f2-ca19-5bbc-8e0f-410080d17d51-attr-1-name" class="er entityLabel">nombre</text><rect height="21" width="23.222930908203125" y="24" x="96.77706909179688" class="er attributeBoxOdd"/><text style="dominant-baseline: middle; font-size: 10.2px;" transform="translate(101.77706909179688,34.5)" y="0" x="0" id="text-entity-INDICE-368871f2-ca19-5bbc-8e0f-410080d17d51-attr-1-key" class="er entityLabel">FK</text><rect height="21" width="35.245819091796875" y="45" x="0" class="er attributeBoxEven"/><text style="dominant-baseline: middle; font-size: 10.2px;" transform="translate(5,55.5)" y="0" x="0" id="text-entity-INDICE-368871f2-ca19-5bbc-8e0f-410080d17d51-attr-2-type" class="er entityLabel">string</text><rect height="21" width="61.53125" y="45" x="35.245819091796875" class="er attributeBoxEven"/><text style="dominant-baseline: middle; font-size: 10.2px;" transform="translate(40.245819091796875,55.5)" y="0" x="0" id="text-entity-INDICE-368871f2-ca19-5bbc-8e0f-410080d17d51-attr-2-name" class="er entityLabel">descripcion</text><rect height="21" width="23.222930908203125" y="45" x="96.77706909179688" class="er attributeBoxEven"/><text style="dominant-baseline: middle; font-size: 10.2px;" transform="translate(101.77706909179688,55.5)" y="0" x="0" id="text-entity-INDICE-368871f2-ca19-5bbc-8e0f-410080d17d51-attr-2-key" class="er entityLabel"/></g><g transform="translate(354.3069152832031,207 )" id="entity-MIRARINDICE-35c834af-15b6-52dd-925c-beb3b9126567"><rect height="129" width="116.015625" y="0" x="0" class="er entityBox"/><text style="dominant-baseline: middle; text-anchor: middle; font-size: 12px;" transform="translate(58.0078125,12)" y="0" x="0" id="text-entity-MIRARINDICE-35c834af-15b6-52dd-925c-beb3b9126567" class="er entityLabel">MIRAR_INDICE</text><rect height="21" width="49.07188924153646" y="24" x="0" class="er attributeBoxOdd"/><text style="dominant-baseline: middle; font-size: 10.2px;" transform="translate(5,34.5)" y="0" x="0" id="text-entity-MIRARINDICE-35c834af-15b6-52dd-925c-beb3b9126567-attr-1-type" class="er entityLabel">string</text><rect height="21" width="40.33641560872396" y="24" x="49.07188924153646" class="er attributeBoxOdd"/><text style="dominant-baseline: middle; font-size: 10.2px;" transform="translate(54.07188924153646,34.5)" y="0" x="0" id="text-entity-MIRARINDICE-35c834af-15b6-52dd-925c-beb3b9126567-attr-1-name" class="er entityLabel">indice</text><rect height="21" width="26.607320149739582" y="24" x="89.40830485026042" class="er attributeBoxOdd"/><text style="dominant-baseline: middle; font-size: 10.2px;" transform="translate(94.40830485026042,34.5)" y="0" x="0" id="text-entity-MIRARINDICE-35c834af-15b6-52dd-925c-beb3b9126567-attr-1-key" class="er entityLabel">FK</text><rect height="21" width="49.07188924153646" y="45" x="0" class="er attributeBoxEven"/><text style="dominant-baseline: middle; font-size: 10.2px;" transform="translate(5,55.5)" y="0" x="0" id="text-entity-MIRARINDICE-35c834af-15b6-52dd-925c-beb3b9126567-attr-2-type" class="er entityLabel">string</text><rect height="21" width="40.33641560872396" y="45" x="49.07188924153646" class="er attributeBoxEven"/><text style="dominant-baseline: middle; font-size: 10.2px;" transform="translate(54.07188924153646,55.5)" y="0" x="0" id="text-entity-MIRARINDICE-35c834af-15b6-52dd-925c-beb3b9126567-attr-2-name" class="er entityLabel">pixel</text><rect height="21" width="26.607320149739582" y="45" x="89.40830485026042" class="er attributeBoxEven"/><text style="dominant-baseline: middle; font-size: 10.2px;" transform="translate(94.40830485026042,55.5)" y="0" x="0" id="text-entity-MIRARINDICE-35c834af-15b6-52dd-925c-beb3b9126567-attr-2-key" class="er entityLabel">FK</text><rect height="21" width="49.07188924153646" y="66" x="0" class="er attributeBoxOdd"/><text style="dominant-baseline: middle; font-size: 10.2px;" transform="translate(5,76.5)" y="0" x="0" id="text-entity-MIRARINDICE-35c834af-15b6-52dd-925c-beb3b9126567-attr-3-type" class="er entityLabel">date</text><rect height="21" width="40.33641560872396" y="66" x="49.07188924153646" class="er attributeBoxOdd"/><text style="dominant-baseline: middle; font-size: 10.2px;" transform="translate(54.07188924153646,76.5)" y="0" x="0" id="text-entity-MIRARINDICE-35c834af-15b6-52dd-925c-beb3b9126567-attr-3-name" class="er entityLabel">fecha</text><rect height="21" width="26.607320149739582" y="66" x="89.40830485026042" class="er attributeBoxOdd"/><text style="dominant-baseline: middle; font-size: 10.2px;" transform="translate(94.40830485026042,76.5)" y="0" x="0" id="text-entity-MIRARINDICE-35c834af-15b6-52dd-925c-beb3b9126567-attr-3-key" class="er entityLabel"/><rect height="21" width="49.07188924153646" y="87" x="0" class="er attributeBoxEven"/><text style="dominant-baseline: middle; font-size: 10.2px;" transform="translate(5,97.5)" y="0" x="0" id="text-entity-MIRARINDICE-35c834af-15b6-52dd-925c-beb3b9126567-attr-4-type" class="er entityLabel">geojson</text><rect height="21" width="40.33641560872396" y="87" x="49.07188924153646" class="er attributeBoxEven"/><text style="dominant-baseline: middle; font-size: 10.2px;" transform="translate(54.07188924153646,97.5)" y="0" x="0" id="text-entity-MIRARINDICE-35c834af-15b6-52dd-925c-beb3b9126567-attr-4-name" class="er entityLabel">json</text><rect height="21" width="26.607320149739582" y="87" x="89.40830485026042" class="er attributeBoxEven"/><text style="dominant-baseline: middle; font-size: 10.2px;" transform="translate(94.40830485026042,97.5)" y="0" x="0" id="text-entity-MIRARINDICE-35c834af-15b6-52dd-925c-beb3b9126567-attr-4-key" class="er entityLabel"/><rect height="21" width="49.07188924153646" y="108" x="0" class="er attributeBoxOdd"/><text style="dominant-baseline: middle; font-size: 10.2px;" transform="translate(5,118.5)" y="0" x="0" id="text-entity-MIRARINDICE-35c834af-15b6-52dd-925c-beb3b9126567-attr-5-type" class="er entityLabel">float</text><rect height="21" width="40.33641560872396" y="108" x="49.07188924153646" class="er attributeBoxOdd"/><text style="dominant-baseline: middle; font-size: 10.2px;" transform="translate(54.07188924153646,118.5)" y="0" x="0" id="text-entity-MIRARINDICE-35c834af-15b6-52dd-925c-beb3b9126567-attr-5-name" class="er entityLabel">valor</text><rect height="21" width="26.607320149739582" y="108" x="89.40830485026042" class="er attributeBoxOdd"/><text style="dominant-baseline: middle; font-size: 10.2px;" transform="translate(94.40830485026042,118.5)" y="0" x="0" id="text-entity-MIRARINDICE-35c834af-15b6-52dd-925c-beb3b9126567-attr-5-key" class="er entityLabel"/></g><g transform="translate(572.3701629638672,20 )" id="entity-PIXEL-f6818624-04a6-55fc-aa23-15dcef3cd9a9"><rect height="87" width="112.65744018554688" y="0" x="0" class="er entityBox"/><text style="dominant-baseline: middle; text-anchor: middle; font-size: 12px;" transform="translate(56.32872009277344,12)" y="0" x="0" id="text-entity-PIXEL-f6818624-04a6-55fc-aa23-15dcef3cd9a9" class="er entityLabel">PIXEL</text><rect height="21" width="45.6875" y="24" x="0" class="er attributeBoxOdd"/><text style="dominant-baseline: middle; font-size: 10.2px;" transform="translate(5,34.5)" y="0" x="0" id="text-entity-PIXEL-f6818624-04a6-55fc-aa23-15dcef3cd9a9-attr-1-type" class="er entityLabel">string</text><rect height="21" width="43.74700927734375" y="24" x="45.6875" class="er attributeBoxOdd"/><text style="dominant-baseline: middle; font-size: 10.2px;" transform="translate(50.6875,34.5)" y="0" x="0" id="text-entity-PIXEL-f6818624-04a6-55fc-aa23-15dcef3cd9a9-attr-1-name" class="er entityLabel">parcela</text><rect height="21" width="23.222930908203125" y="24" x="89.43450927734375" class="er attributeBoxOdd"/><text style="dominant-baseline: middle; font-size: 10.2px;" transform="translate(94.43450927734375,34.5)" y="0" x="0" id="text-entity-PIXEL-f6818624-04a6-55fc-aa23-15dcef3cd9a9-attr-1-key" class="er entityLabel">FK</text><rect height="21" width="45.6875" y="45" x="0" class="er attributeBoxEven"/><text style="dominant-baseline: middle; font-size: 10.2px;" transform="translate(5,55.5)" y="0" x="0" id="text-entity-PIXEL-f6818624-04a6-55fc-aa23-15dcef3cd9a9-attr-2-type" class="er entityLabel">polygon</text><rect height="21" width="43.74700927734375" y="45" x="45.6875" class="er attributeBoxEven"/><text style="dominant-baseline: middle; font-size: 10.2px;" transform="translate(50.6875,55.5)" y="0" x="0" id="text-entity-PIXEL-f6818624-04a6-55fc-aa23-15dcef3cd9a9-attr-2-name" class="er entityLabel">geom</text><rect height="21" width="23.222930908203125" y="45" x="89.43450927734375" class="er attributeBoxEven"/><text style="dominant-baseline: middle; font-size: 10.2px;" transform="translate(94.43450927734375,55.5)" y="0" x="0" id="text-entity-PIXEL-f6818624-04a6-55fc-aa23-15dcef3cd9a9-attr-2-key" class="er entityLabel"/><rect height="21" width="45.6875" y="66" x="0" class="er attributeBoxOdd"/><text style="dominant-baseline: middle; font-size: 10.2px;" transform="translate(5,76.5)" y="0" x="0" id="text-entity-PIXEL-f6818624-04a6-55fc-aa23-15dcef3cd9a9-attr-3-type" class="er entityLabel">string</text><rect height="21" width="43.74700927734375" y="66" x="45.6875" class="er attributeBoxOdd"/><text style="dominant-baseline: middle; font-size: 10.2px;" transform="translate(50.6875,76.5)" y="0" x="0" id="text-entity-PIXEL-f6818624-04a6-55fc-aa23-15dcef3cd9a9-attr-3-name" class="er entityLabel">idx</text><rect height="21" width="23.222930908203125" y="66" x="89.43450927734375" class="er attributeBoxOdd"/><text style="dominant-baseline: middle; font-size: 10.2px;" transform="translate(94.43450927734375,76.5)" y="0" x="0" id="text-entity-PIXEL-f6818624-04a6-55fc-aa23-15dcef3cd9a9-attr-3-key" class="er entityLabel"/></g><g transform="translate(620.2671051025391,217.5 )" id="entity-PARCELA-397a2d3f-8cad-5f6f-9c32-31c208451969"><rect height="108" width="116.86355590820312" y="0" x="0" class="er entityBox"/><text style="dominant-baseline: middle; text-anchor: middle; font-size: 12px;" transform="translate(58.43177795410156,12)" y="0" x="0" id="text-entity-PARCELA-397a2d3f-8cad-5f6f-9c32-31c208451969" class="er entityLabel">PARCELA</text><rect height="21" width="45.6875" y="24" x="0" class="er attributeBoxOdd"/><text style="dominant-baseline: middle; font-size: 10.2px;" transform="translate(5,34.5)" y="0" x="0" id="text-entity-PARCELA-397a2d3f-8cad-5f6f-9c32-31c208451969-attr-1-type" class="er entityLabel">string</text><rect height="21" width="47.953125" y="24" x="45.6875" class="er attributeBoxOdd"/><text style="dominant-baseline: middle; font-size: 10.2px;" transform="translate(50.6875,34.5)" y="0" x="0" id="text-entity-PARCELA-397a2d3f-8cad-5f6f-9c32-31c208451969-attr-1-name" class="er entityLabel">idx</text><rect height="21" width="23.222930908203125" y="24" x="93.640625" class="er attributeBoxOdd"/><text style="dominant-baseline: middle; font-size: 10.2px;" transform="translate(98.640625,34.5)" y="0" x="0" id="text-entity-PARCELA-397a2d3f-8cad-5f6f-9c32-31c208451969-attr-1-key" class="er entityLabel"/><rect height="21" width="45.6875" y="45" x="0" class="er attributeBoxEven"/><text style="dominant-baseline: middle; font-size: 10.2px;" transform="translate(5,55.5)" y="0" x="0" id="text-entity-PARCELA-397a2d3f-8cad-5f6f-9c32-31c208451969-attr-2-type" class="er entityLabel">string</text><rect height="21" width="47.953125" y="45" x="45.6875" class="er attributeBoxEven"/><text style="dominant-baseline: middle; font-size: 10.2px;" transform="translate(50.6875,55.5)" y="0" x="0" id="text-entity-PARCELA-397a2d3f-8cad-5f6f-9c32-31c208451969-attr-2-name" class="er entityLabel">estacion</text><rect height="21" width="23.222930908203125" y="45" x="93.640625" class="er attributeBoxEven"/><text style="dominant-baseline: middle; font-size: 10.2px;" transform="translate(98.640625,55.5)" y="0" x="0" id="text-entity-PARCELA-397a2d3f-8cad-5f6f-9c32-31c208451969-attr-2-key" class="er entityLabel">FK</text><rect height="21" width="45.6875" y="66" x="0" class="er attributeBoxOdd"/><text style="dominant-baseline: middle; font-size: 10.2px;" transform="translate(5,76.5)" y="0" x="0" id="text-entity-PARCELA-397a2d3f-8cad-5f6f-9c32-31c208451969-attr-3-type" class="er entityLabel">float</text><rect height="21" width="47.953125" y="66" x="45.6875" class="er attributeBoxOdd"/><text style="dominant-baseline: middle; font-size: 10.2px;" transform="translate(50.6875,76.5)" y="0" x="0" id="text-entity-PARCELA-397a2d3f-8cad-5f6f-9c32-31c208451969-attr-3-name" class="er entityLabel">altitud</text><rect height="21" width="23.222930908203125" y="66" x="93.640625" class="er attributeBoxOdd"/><text style="dominant-baseline: middle; font-size: 10.2px;" transform="translate(98.640625,76.5)" y="0" x="0" id="text-entity-PARCELA-397a2d3f-8cad-5f6f-9c32-31c208451969-attr-3-key" class="er entityLabel"/><rect height="21" width="45.6875" y="87" x="0" class="er attributeBoxEven"/><text style="dominant-baseline: middle; font-size: 10.2px;" transform="translate(5,97.5)" y="0" x="0" id="text-entity-PARCELA-397a2d3f-8cad-5f6f-9c32-31c208451969-attr-4-type" class="er entityLabel">polygon</text><rect height="21" width="47.953125" y="87" x="45.6875" class="er attributeBoxEven"/><text style="dominant-baseline: middle; font-size: 10.2px;" transform="translate(50.6875,97.5)" y="0" x="0" id="text-entity-PARCELA-397a2d3f-8cad-5f6f-9c32-31c208451969-attr-4-name" class="er entityLabel">geom</text><rect height="21" width="23.222930908203125" y="87" x="93.640625" class="er attributeBoxEven"/><text style="dominant-baseline: middle; font-size: 10.2px;" transform="translate(98.640625,97.5)" y="0" x="0" id="text-entity-PARCELA-397a2d3f-8cad-5f6f-9c32-31c208451969-attr-4-key" class="er entityLabel"/></g><g transform="translate(677.0264129638672,467.5 )" id="entity-ESTACION-274c0dff-d0b8-59cc-97e5-e7023d679548"><rect height="45" width="103.34494018554688" y="0" x="0" class="er entityBox"/><text style="dominant-baseline: middle; text-anchor: middle; font-size: 12px;" transform="translate(51.67247009277344,12)" y="0" x="0" id="text-entity-ESTACION-274c0dff-d0b8-59cc-97e5-e7023d679548" class="er entityLabel">ESTACION</text><rect height="21" width="35.245819091796875" y="24" x="0" class="er attributeBoxOdd"/><text style="dominant-baseline: middle; font-size: 10.2px;" transform="translate(5,34.5)" y="0" x="0" id="text-entity-ESTACION-274c0dff-d0b8-59cc-97e5-e7023d679548-attr-1-type" class="er entityLabel">string</text><rect height="21" width="44.876190185546875" y="24" x="35.245819091796875" class="er attributeBoxOdd"/><text style="dominant-baseline: middle; font-size: 10.2px;" transform="translate(40.245819091796875,34.5)" y="0" x="0" id="text-entity-ESTACION-274c0dff-d0b8-59cc-97e5-e7023d679548-attr-1-name" class="er entityLabel">nombre</text><rect height="21" width="23.222930908203125" y="24" x="80.12200927734375" class="er attributeBoxOdd"/><text style="dominant-baseline: middle; font-size: 10.2px;" transform="translate(85.12200927734375,34.5)" y="0" x="0" id="text-entity-ESTACION-274c0dff-d0b8-59cc-97e5-e7023d679548-attr-1-key" class="er entityLabel">FK</text></g><g transform="translate(646.9098205566406,644 )" id="entity-ESTACIONHISTORICO-94745b82-a794-5bc2-b54a-fec0110a90e0"><rect height="87" width="163.578125" y="0" x="0" class="er entityBox"/><text style="dominant-baseline: middle; text-anchor: middle; font-size: 12px;" transform="translate(81.7890625,12)" y="0" x="0" id="text-entity-ESTACIONHISTORICO-94745b82-a794-5bc2-b54a-fec0110a90e0" class="er entityLabel">ESTACION_HISTORICO</text><rect height="21" width="63.36119588216146" y="24" x="0" class="er attributeBoxOdd"/><text style="dominant-baseline: middle; font-size: 10.2px;" transform="translate(5,34.5)" y="0" x="0" id="text-entity-ESTACIONHISTORICO-94745b82-a794-5bc2-b54a-fec0110a90e0-attr-1-type" class="er entityLabel">string</text><rect height="21" width="62.47356160481771" y="24" x="63.36119588216146" class="er attributeBoxOdd"/><text style="dominant-baseline: middle; font-size: 10.2px;" transform="translate(68.36119588216147,34.5)" y="0" x="0" id="text-entity-ESTACIONHISTORICO-94745b82-a794-5bc2-b54a-fec0110a90e0-attr-1-name" class="er entityLabel">estacion</text><rect height="21" width="37.743367513020836" y="24" x="125.83475748697917" class="er attributeBoxOdd"/><text style="dominant-baseline: middle; font-size: 10.2px;" transform="translate(130.83475748697919,34.5)" y="0" x="0" id="text-entity-ESTACIONHISTORICO-94745b82-a794-5bc2-b54a-fec0110a90e0-attr-1-key" class="er entityLabel">FK</text><rect height="21" width="63.36119588216146" y="45" x="0" class="er attributeBoxEven"/><text style="dominant-baseline: middle; font-size: 10.2px;" transform="translate(5,55.5)" y="0" x="0" id="text-entity-ESTACIONHISTORICO-94745b82-a794-5bc2-b54a-fec0110a90e0-attr-2-type" class="er entityLabel">date</text><rect height="21" width="62.47356160481771" y="45" x="63.36119588216146" class="er attributeBoxEven"/><text style="dominant-baseline: middle; font-size: 10.2px;" transform="translate(68.36119588216147,55.5)" y="0" x="0" id="text-entity-ESTACIONHISTORICO-94745b82-a794-5bc2-b54a-fec0110a90e0-attr-2-name" class="er entityLabel">fecha</text><rect height="21" width="37.743367513020836" y="45" x="125.83475748697917" class="er attributeBoxEven"/><text style="dominant-baseline: middle; font-size: 10.2px;" transform="translate(130.83475748697919,55.5)" y="0" x="0" id="text-entity-ESTACIONHISTORICO-94745b82-a794-5bc2-b54a-fec0110a90e0-attr-2-key" class="er entityLabel"/><rect height="21" width="63.36119588216146" y="66" x="0" class="er attributeBoxOdd"/><text style="dominant-baseline: middle; font-size: 10.2px;" transform="translate(5,76.5)" y="0" x="0" id="text-entity-ESTACIONHISTORICO-94745b82-a794-5bc2-b54a-fec0110a90e0-attr-3-type" class="er entityLabel">charfield</text><rect height="21" width="62.47356160481771" y="66" x="63.36119588216146" class="er attributeBoxOdd"/><text style="dominant-baseline: middle; font-size: 10.2px;" transform="translate(68.36119588216147,76.5)" y="0" x="0" id="text-entity-ESTACIONHISTORICO-94745b82-a794-5bc2-b54a-fec0110a90e0-attr-3-name" class="er entityLabel">file</text><rect height="21" width="37.743367513020836" y="66" x="125.83475748697917" class="er attributeBoxOdd"/><text style="dominant-baseline: middle; font-size: 10.2px;" transform="translate(130.83475748697919,76.5)" y="0" x="0" id="text-entity-ESTACIONHISTORICO-94745b82-a794-5bc2-b54a-fec0110a90e0-attr-3-key" class="er entityLabel"/></g><rect height="14" width="8.671875" y="264.5" x="239.1376495361328" class="er relationshipLabelBox"/><text style="text-anchor: middle; dominant-baseline: middle; font-size: 12px;" y="271.5" x="243.4735870361328" id="rel1" class="er relationshipLabel">is</text><rect height="14" width="44.703125" y="365.1181640625" x="62.458885192871094" class="er relationshipLabelBox"/><text style="text-anchor: middle; dominant-baseline: middle; font-size: 12px;" y="372.1181640625" x="84.8104476928711" id="rel2" class="er relationshipLabel">contains</text><rect height="14" width="44.703125" y="146.29232788085938" x="343.23016357421875" class="er relationshipLabelBox"/><text style="text-anchor: middle; dominant-baseline: middle; font-size: 12px;" y="153.29232788085938" x="365.58172607421875" id="rel3" class="er relationshipLabel">contains</text><rect height="14" width="44.703125" y="149.72494506835938" x="500.24456787109375" class="er relationshipLabelBox"/><text style="text-anchor: middle; dominant-baseline: middle; font-size: 12px;" y="156.72494506835938" x="522.5961303710938" id="rel4" class="er relationshipLabel">contains</text><rect height="14" width="8.671875" y="152.99383544921875" x="670.2001953125" class="er relationshipLabelBox"/><text style="text-anchor: middle; dominant-baseline: middle; font-size: 12px;" y="159.99383544921875" x="674.5361328125" id="rel5" class="er relationshipLabel">is</text><rect height="14" width="44.703125" y="387.6187438964844" x="702.8211669921875" class="er relationshipLabelBox"/><text style="text-anchor: middle; dominant-baseline: middle; font-size: 12px;" y="394.6187438964844" x="725.1727294921875" id="rel6" class="er relationshipLabel">contains</text><rect height="14" width="44.703125" y="386.8745422363281" x="396.9981994628906" class="er relationshipLabelBox"/><text style="text-anchor: middle; dominant-baseline: middle; font-size: 12px;" y="393.8745422363281" x="419.3497619628906" id="rel7" class="er relationshipLabel">contains</text><rect height="14" width="44.703125" y="571.25" x="706.3473510742188" class="er relationshipLabelBox"/><text style="text-anchor: middle; dominant-baseline: middle; font-size: 12px;" y="578.25" x="728.6989135742188" id="rel8" class="er relationshipLabel">contains</text></svg>