<svg aria-roledescription="er" role="graphics-document document" viewBox="0 0 462.16827392578125 356" style="max-width: 462.168px; background-color: white;" xmlns:xlink="http://www.w3.org/1999/xlink" xmlns="http://www.w3.org/2000/svg" width="100%" id="mermaid-1685974905494"><style>#mermaid-1685974905494{font-family:"trebuchet ms",verdana,arial,sans-serif;font-size:16px;fill:#333;}#mermaid-1685974905494 .error-icon{fill:#552222;}#mermaid-1685974905494 .error-text{fill:#552222;stroke:#552222;}#mermaid-1685974905494 .edge-thickness-normal{stroke-width:2px;}#mermaid-1685974905494 .edge-thickness-thick{stroke-width:3.5px;}#mermaid-1685974905494 .edge-pattern-solid{stroke-dasharray:0;}#mermaid-1685974905494 .edge-pattern-dashed{stroke-dasharray:3;}#mermaid-1685974905494 .edge-pattern-dotted{stroke-dasharray:2;}#mermaid-1685974905494 .marker{fill:#333333;stroke:#333333;}#mermaid-1685974905494 .marker.cross{stroke:#333333;}#mermaid-1685974905494 svg{font-family:"trebuchet ms",verdana,arial,sans-serif;font-size:16px;}#mermaid-1685974905494 .entityBox{fill:#ECECFF;stroke:#9370DB;}#mermaid-1685974905494 .attributeBoxOdd{fill:#ffffff;stroke:#9370DB;}#mermaid-1685974905494 .attributeBoxEven{fill:#f2f2f2;stroke:#9370DB;}#mermaid-1685974905494 .relationshipLabelBox{fill:hsl(80, 100%, 96.2745098039%);opacity:0.7;background-color:hsl(80, 100%, 96.2745098039%);}#mermaid-1685974905494 .relationshipLabelBox rect{opacity:0.5;}#mermaid-1685974905494 .relationshipLine{stroke:#333333;}#mermaid-1685974905494 .entityTitleText{text-anchor:middle;font-size:18px;fill:#333;}#mermaid-1685974905494 :root{--mermaid-font-family:"trebuchet ms",verdana,arial,sans-serif;}</style><g/><defs><marker orient="auto" markerHeight="18" markerWidth="18" refY="9" refX="0" id="ONLY_ONE_START"><path d="M9,0 L9,18 M15,0 L15,18" fill="none" stroke="gray"/></marker></defs><defs><marker orient="auto" markerHeight="18" markerWidth="18" refY="9" refX="18" id="ONLY_ONE_END"><path d="M3,0 L3,18 M9,0 L9,18" fill="none" stroke="gray"/></marker></defs><defs><marker orient="auto" markerHeight="18" markerWidth="30" refY="9" refX="0" id="ZERO_OR_ONE_START"><circle r="6" cy="9" cx="21" fill="white" stroke="gray"/><path d="M9,0 L9,18" fill="none" stroke="gray"/></marker></defs><defs><marker orient="auto" markerHeight="18" markerWidth="30" refY="9" refX="30" id="ZERO_OR_ONE_END"><circle r="6" cy="9" cx="9" fill="white" stroke="gray"/><path d="M21,0 L21,18" fill="none" stroke="gray"/></marker></defs><defs><marker orient="auto" markerHeight="36" markerWidth="45" refY="18" refX="18" id="ONE_OR_MORE_START"><path d="M0,18 Q 18,0 36,18 Q 18,36 0,18 M42,9 L42,27" fill="none" stroke="gray"/></marker></defs><defs><marker orient="auto" markerHeight="36" markerWidth="45" refY="18" refX="27" id="ONE_OR_MORE_END"><path d="M3,9 L3,27 M9,18 Q27,0 45,18 Q27,36 9,18" fill="none" stroke="gray"/></marker></defs><defs><marker orient="auto" markerHeight="36" markerWidth="57" refY="18" refX="18" id="ZERO_OR_MORE_START"><circle r="6" cy="18" cx="48" fill="white" stroke="gray"/><path d="M0,18 Q18,0 36,18 Q18,36 0,18" fill="none" stroke="gray"/></marker></defs><defs><marker orient="auto" markerHeight="36" markerWidth="57" refY="18" refX="39" id="ZERO_OR_MORE_END"><circle r="6" cy="18" cx="9" fill="white" stroke="gray"/><path d="M21,18 Q39,0 57,18 Q39,36 21,18" fill="none" stroke="gray"/></marker></defs><path style="stroke: gray; fill: none;" marker-start="url(#ONLY_ONE_START)" marker-end="url(#ZERO_OR_MORE_END)" d="M80,96.5L80,106.58333333333333C80,116.66666666666667,80,136.83333333333334,83.63901018922853,155.25C87.27802037845704,173.66666666666666,94.55604075691411,190.33333333333334,98.19505094614264,198.66666666666666L101.83406113537117,207" class="er relationshipLine"/><path style="stroke: gray; fill: none;" marker-start="url(#ONLY_ONE_START)" marker-end="url(#ZERO_OR_MORE_END)" d="M293.7814222121621,107L284.51191185119956,115.33333333333333C275.242401490237,123.66666666666667,256.7033807683119,140.33333333333334,239.07444581628485,157.5157377957003C221.4455108642578,174.69814225806726,204.7266616821289,192.39628451613453,196.36723709106445,201.24535564516816L188.0078125,210.0944267742018" class="er relationshipLine"/><path style="stroke: gray; fill: none;" marker-start="url(#ZERO_OR_MORE_START)" marker-end="url(#ONLY_ONE_END)" d="M365.4302983819482,107L369.88662636768794,115.33333333333333C374.34295435342773,123.66666666666667,383.2556103249072,140.33333333333334,387.71193831064693,158.75C392.1682662963867,177.16666666666666,392.1682662963867,197.33333333333334,392.1682662963867,207.41666666666666L392.1682662963867,217.5" class="er relationshipLine"/><g transform="translate(20,30.5 )" id="entity-INDICE-368871f2-ca19-5bbc-8e0f-410080d17d51"><rect height="66" width="120" y="0" x="0" class="er entityBox"/><text style="dominant-baseline: middle; text-anchor: middle; font-size: 12px;" transform="translate(60,12)" y="0" x="0" id="text-entity-INDICE-368871f2-ca19-5bbc-8e0f-410080d17d51" class="er entityLabel">INDICE</text><rect height="21" width="35.245819091796875" y="24" x="0" class="er attributeBoxOdd"/><text style="dominant-baseline: middle; font-size: 10.2px;" transform="translate(5,34.5)" y="0" x="0" id="text-entity-INDICE-368871f2-ca19-5bbc-8e0f-410080d17d51-attr-1-type" class="er entityLabel">string</text><rect height="21" width="61.53125" y="24" x="35.245819091796875" class="er attributeBoxOdd"/><text style="dominant-baseline: middle; font-size: 10.2px;" transform="translate(40.245819091796875,34.5)" y="0" x="0" id="text-entity-INDICE-368871f2-ca19-5bbc-8e0f-410080d17d51-attr-1-name" class="er entityLabel">nombre</text><rect height="21" width="23.222930908203125" y="24" x="96.77706909179688" class="er attributeBoxOdd"/><text style="dominant-baseline: middle; font-size: 10.2px;" transform="translate(101.77706909179688,34.5)" y="0" x="0" id="text-entity-INDICE-368871f2-ca19-5bbc-8e0f-410080d17d51-attr-1-key" class="er entityLabel">FK</text><rect height="21" width="35.245819091796875" y="45" x="0" class="er attributeBoxEven"/><text style="dominant-baseline: middle; font-size: 10.2px;" transform="translate(5,55.5)" y="0" x="0" id="text-entity-INDICE-368871f2-ca19-5bbc-8e0f-410080d17d51-attr-2-type" class="er entityLabel">string</text><rect height="21" width="61.53125" y="45" x="35.245819091796875" class="er attributeBoxEven"/><text style="dominant-baseline: middle; font-size: 10.2px;" transform="translate(40.245819091796875,55.5)" y="0" x="0" id="text-entity-INDICE-368871f2-ca19-5bbc-8e0f-410080d17d51-attr-2-name" class="er entityLabel">descripcion</text><rect height="21" width="23.222930908203125" y="45" x="96.77706909179688" class="er attributeBoxEven"/><text style="dominant-baseline: middle; font-size: 10.2px;" transform="translate(101.77706909179688,55.5)" y="0" x="0" id="text-entity-INDICE-368871f2-ca19-5bbc-8e0f-410080d17d51-attr-2-key" class="er entityLabel"/></g><g transform="translate(71.9921875,207 )" id="entity-MIRARINDICE-35c834af-15b6-52dd-925c-beb3b9126567"><rect height="129" width="116.015625" y="0" x="0" class="er entityBox"/><text style="dominant-baseline: middle; text-anchor: middle; font-size: 12px;" transform="translate(58.0078125,12)" y="0" x="0" id="text-entity-MIRARINDICE-35c834af-15b6-52dd-925c-beb3b9126567" class="er entityLabel">MIRAR_INDICE</text><rect height="21" width="49.07188924153646" y="24" x="0" class="er attributeBoxOdd"/><text style="dominant-baseline: middle; font-size: 10.2px;" transform="translate(5,34.5)" y="0" x="0" id="text-entity-MIRARINDICE-35c834af-15b6-52dd-925c-beb3b9126567-attr-1-type" class="er entityLabel">string</text><rect height="21" width="40.33641560872396" y="24" x="49.07188924153646" class="er attributeBoxOdd"/><text style="dominant-baseline: middle; font-size: 10.2px;" transform="translate(54.07188924153646,34.5)" y="0" x="0" id="text-entity-MIRARINDICE-35c834af-15b6-52dd-925c-beb3b9126567-attr-1-name" class="er entityLabel">indice</text><rect height="21" width="26.607320149739582" y="24" x="89.40830485026042" class="er attributeBoxOdd"/><text style="dominant-baseline: middle; font-size: 10.2px;" transform="translate(94.40830485026042,34.5)" y="0" x="0" id="text-entity-MIRARINDICE-35c834af-15b6-52dd-925c-beb3b9126567-attr-1-key" class="er entityLabel">FK</text><rect height="21" width="49.07188924153646" y="45" x="0" class="er attributeBoxEven"/><text style="dominant-baseline: middle; font-size: 10.2px;" transform="translate(5,55.5)" y="0" x="0" id="text-entity-MIRARINDICE-35c834af-15b6-52dd-925c-beb3b9126567-attr-2-type" class="er entityLabel">string</text><rect height="21" width="40.33641560872396" y="45" x="49.07188924153646" class="er attributeBoxEven"/><text style="dominant-baseline: middle; font-size: 10.2px;" transform="translate(54.07188924153646,55.5)" y="0" x="0" id="text-entity-MIRARINDICE-35c834af-15b6-52dd-925c-beb3b9126567-attr-2-name" class="er entityLabel">pixel</text><rect height="21" width="26.607320149739582" y="45" x="89.40830485026042" class="er attributeBoxEven"/><text style="dominant-baseline: middle; font-size: 10.2px;" transform="translate(94.40830485026042,55.5)" y="0" x="0" id="text-entity-MIRARINDICE-35c834af-15b6-52dd-925c-beb3b9126567-attr-2-key" class="er entityLabel">FK</text><rect height="21" width="49.07188924153646" y="66" x="0" class="er attributeBoxOdd"/><text style="dominant-baseline: middle; font-size: 10.2px;" transform="translate(5,76.5)" y="0" x="0" id="text-entity-MIRARINDICE-35c834af-15b6-52dd-925c-beb3b9126567-attr-3-type" class="er entityLabel">date</text><rect height="21" width="40.33641560872396" y="66" x="49.07188924153646" class="er attributeBoxOdd"/><text style="dominant-baseline: middle; font-size: 10.2px;" transform="translate(54.07188924153646,76.5)" y="0" x="0" id="text-entity-MIRARINDICE-35c834af-15b6-52dd-925c-beb3b9126567-attr-3-name" class="er entityLabel">fecha</text><rect height="21" width="26.607320149739582" y="66" x="89.40830485026042" class="er attributeBoxOdd"/><text style="dominant-baseline: middle; font-size: 10.2px;" transform="translate(94.40830485026042,76.5)" y="0" x="0" id="text-entity-MIRARINDICE-35c834af-15b6-52dd-925c-beb3b9126567-attr-3-key" class="er entityLabel"/><rect height="21" width="49.07188924153646" y="87" x="0" class="er attributeBoxEven"/><text style="dominant-baseline: middle; font-size: 10.2px;" transform="translate(5,97.5)" y="0" x="0" id="text-entity-MIRARINDICE-35c834af-15b6-52dd-925c-beb3b9126567-attr-4-type" class="er entityLabel">geojson</text><rect height="21" width="40.33641560872396" y="87" x="49.07188924153646" class="er attributeBoxEven"/><text style="dominant-baseline: middle; font-size: 10.2px;" transform="translate(54.07188924153646,97.5)" y="0" x="0" id="text-entity-MIRARINDICE-35c834af-15b6-52dd-925c-beb3b9126567-attr-4-name" class="er entityLabel">json</text><rect height="21" width="26.607320149739582" y="87" x="89.40830485026042" class="er attributeBoxEven"/><text style="dominant-baseline: middle; font-size: 10.2px;" transform="translate(94.40830485026042,97.5)" y="0" x="0" id="text-entity-MIRARINDICE-35c834af-15b6-52dd-925c-beb3b9126567-attr-4-key" class="er entityLabel"/><rect height="21" width="49.07188924153646" y="108" x="0" class="er attributeBoxOdd"/><text style="dominant-baseline: middle; font-size: 10.2px;" transform="translate(5,118.5)" y="0" x="0" id="text-entity-MIRARINDICE-35c834af-15b6-52dd-925c-beb3b9126567-attr-5-type" class="er entityLabel">float</text><rect height="21" width="40.33641560872396" y="108" x="49.07188924153646" class="er attributeBoxOdd"/><text style="dominant-baseline: middle; font-size: 10.2px;" transform="translate(54.07188924153646,118.5)" y="0" x="0" id="text-entity-MIRARINDICE-35c834af-15b6-52dd-925c-beb3b9126567-attr-5-name" class="er entityLabel">valor</text><rect height="21" width="26.607320149739582" y="108" x="89.40830485026042" class="er attributeBoxOdd"/><text style="dominant-baseline: middle; font-size: 10.2px;" transform="translate(94.40830485026042,118.5)" y="0" x="0" id="text-entity-MIRARINDICE-35c834af-15b6-52dd-925c-beb3b9126567-attr-5-key" class="er entityLabel"/></g><g transform="translate(285.8395462036133,20 )" id="entity-PIXEL-f6818624-04a6-55fc-aa23-15dcef3cd9a9"><rect height="87" width="112.65744018554688" y="0" x="0" class="er entityBox"/><text style="dominant-baseline: middle; text-anchor: middle; font-size: 12px;" transform="translate(56.32872009277344,12)" y="0" x="0" id="text-entity-PIXEL-f6818624-04a6-55fc-aa23-15dcef3cd9a9" class="er entityLabel">PIXEL</text><rect height="21" width="45.6875" y="24" x="0" class="er attributeBoxOdd"/><text style="dominant-baseline: middle; font-size: 10.2px;" transform="translate(5,34.5)" y="0" x="0" id="text-entity-PIXEL-f6818624-04a6-55fc-aa23-15dcef3cd9a9-attr-1-type" class="er entityLabel">string</text><rect height="21" width="43.74700927734375" y="24" x="45.6875" class="er attributeBoxOdd"/><text style="dominant-baseline: middle; font-size: 10.2px;" transform="translate(50.6875,34.5)" y="0" x="0" id="text-entity-PIXEL-f6818624-04a6-55fc-aa23-15dcef3cd9a9-attr-1-name" class="er entityLabel">parcela</text><rect height="21" width="23.222930908203125" y="24" x="89.43450927734375" class="er attributeBoxOdd"/><text style="dominant-baseline: middle; font-size: 10.2px;" transform="translate(94.43450927734375,34.5)" y="0" x="0" id="text-entity-PIXEL-f6818624-04a6-55fc-aa23-15dcef3cd9a9-attr-1-key" class="er entityLabel">FK</text><rect height="21" width="45.6875" y="45" x="0" class="er attributeBoxEven"/><text style="dominant-baseline: middle; font-size: 10.2px;" transform="translate(5,55.5)" y="0" x="0" id="text-entity-PIXEL-f6818624-04a6-55fc-aa23-15dcef3cd9a9-attr-2-type" class="er entityLabel">polygon</text><rect height="21" width="43.74700927734375" y="45" x="45.6875" class="er attributeBoxEven"/><text style="dominant-baseline: middle; font-size: 10.2px;" transform="translate(50.6875,55.5)" y="0" x="0" id="text-entity-PIXEL-f6818624-04a6-55fc-aa23-15dcef3cd9a9-attr-2-name" class="er entityLabel">geom</text><rect height="21" width="23.222930908203125" y="45" x="89.43450927734375" class="er attributeBoxEven"/><text style="dominant-baseline: middle; font-size: 10.2px;" transform="translate(94.43450927734375,55.5)" y="0" x="0" id="text-entity-PIXEL-f6818624-04a6-55fc-aa23-15dcef3cd9a9-attr-2-key" class="er entityLabel"/><rect height="21" width="45.6875" y="66" x="0" class="er attributeBoxOdd"/><text style="dominant-baseline: middle; font-size: 10.2px;" transform="translate(5,76.5)" y="0" x="0" id="text-entity-PIXEL-f6818624-04a6-55fc-aa23-15dcef3cd9a9-attr-3-type" class="er entityLabel">string</text><rect height="21" width="43.74700927734375" y="66" x="45.6875" class="er attributeBoxOdd"/><text style="dominant-baseline: middle; font-size: 10.2px;" transform="translate(50.6875,76.5)" y="0" x="0" id="text-entity-PIXEL-f6818624-04a6-55fc-aa23-15dcef3cd9a9-attr-3-name" class="er entityLabel">idx</text><rect height="21" width="23.222930908203125" y="66" x="89.43450927734375" class="er attributeBoxOdd"/><text style="dominant-baseline: middle; font-size: 10.2px;" transform="translate(94.43450927734375,76.5)" y="0" x="0" id="text-entity-PIXEL-f6818624-04a6-55fc-aa23-15dcef3cd9a9-attr-3-key" class="er entityLabel"/></g><g transform="translate(342.1682662963867,217.5 )" id="entity-PARCELA-397a2d3f-8cad-5f6f-9c32-31c208451969"><rect height="108" width="100" y="0" x="0" class="er entityBox"/><text style="dominant-baseline: middle; text-anchor: middle; font-size: 12px;" transform="translate(50,12)" y="0" x="0" id="text-entity-PARCELA-397a2d3f-8cad-5f6f-9c32-31c208451969" class="er entityLabel">PARCELA</text><rect height="21" width="48.8671875" y="24" x="0" class="er attributeBoxOdd"/><text style="dominant-baseline: middle; font-size: 10.2px;" transform="translate(5,34.5)" y="0" x="0" id="text-entity-PARCELA-397a2d3f-8cad-5f6f-9c32-31c208451969-attr-1-type" class="er entityLabel">string</text><rect height="21" width="51.1328125" y="24" x="48.8671875" class="er attributeBoxOdd"/><text style="dominant-baseline: middle; font-size: 10.2px;" transform="translate(53.8671875,34.5)" y="0" x="0" id="text-entity-PARCELA-397a2d3f-8cad-5f6f-9c32-31c208451969-attr-1-name" class="er entityLabel">idx</text><rect height="21" width="48.8671875" y="45" x="0" class="er attributeBoxEven"/><text style="dominant-baseline: middle; font-size: 10.2px;" transform="translate(5,55.5)" y="0" x="0" id="text-entity-PARCELA-397a2d3f-8cad-5f6f-9c32-31c208451969-attr-2-type" class="er entityLabel">string</text><rect height="21" width="51.1328125" y="45" x="48.8671875" class="er attributeBoxEven"/><text style="dominant-baseline: middle; font-size: 10.2px;" transform="translate(53.8671875,55.5)" y="0" x="0" id="text-entity-PARCELA-397a2d3f-8cad-5f6f-9c32-31c208451969-attr-2-name" class="er entityLabel">estacion</text><rect height="21" width="48.8671875" y="66" x="0" class="er attributeBoxOdd"/><text style="dominant-baseline: middle; font-size: 10.2px;" transform="translate(5,76.5)" y="0" x="0" id="text-entity-PARCELA-397a2d3f-8cad-5f6f-9c32-31c208451969-attr-3-type" class="er entityLabel">float</text><rect height="21" width="51.1328125" y="66" x="48.8671875" class="er attributeBoxOdd"/><text style="dominant-baseline: middle; font-size: 10.2px;" transform="translate(53.8671875,76.5)" y="0" x="0" id="text-entity-PARCELA-397a2d3f-8cad-5f6f-9c32-31c208451969-attr-3-name" class="er entityLabel">altitud</text><rect height="21" width="48.8671875" y="87" x="0" class="er attributeBoxEven"/><text style="dominant-baseline: middle; font-size: 10.2px;" transform="translate(5,97.5)" y="0" x="0" id="text-entity-PARCELA-397a2d3f-8cad-5f6f-9c32-31c208451969-attr-4-type" class="er entityLabel">polygon</text><rect height="21" width="51.1328125" y="87" x="48.8671875" class="er attributeBoxEven"/><text style="dominant-baseline: middle; font-size: 10.2px;" transform="translate(53.8671875,97.5)" y="0" x="0" id="text-entity-PARCELA-397a2d3f-8cad-5f6f-9c32-31c208451969-attr-4-name" class="er entityLabel">geom</text></g><rect height="14" width="44.703125" y="146.29232788085938" x="60.91545104980469" class="er relationshipLabelBox"/><text style="text-anchor: middle; dominant-baseline: middle; font-size: 12px;" y="153.29232788085938" x="83.26701354980469" id="rel1" class="er relationshipLabel">contains</text><rect height="14" width="44.703125" y="150.10922241210938" x="217.14100646972656" class="er relationshipLabelBox"/><text style="text-anchor: middle; dominant-baseline: middle; font-size: 12px;" y="157.10922241210938" x="239.49256896972656" id="rel2" class="er relationshipLabel">contains</text><rect height="14" width="44.703125" y="152.9938201904297" x="365.6539611816406" class="er relationshipLabelBox"/><text style="text-anchor: middle; dominant-baseline: middle; font-size: 12px;" y="159.9938201904297" x="388.0055236816406" id="rel3" class="er relationshipLabel">contains</text></svg>