<svg aria-roledescription="er" role="graphics-document document" viewBox="0 0 694.3069458007812 335" style="max-width: 694.307px; background-color: white;" xmlns:xlink="http://www.w3.org/1999/xlink" xmlns="http://www.w3.org/2000/svg" width="100%" id="mermaid-1685974903925"><style>#mermaid-1685974903925{font-family:"trebuchet ms",verdana,arial,sans-serif;font-size:16px;fill:#333;}#mermaid-1685974903925 .error-icon{fill:#552222;}#mermaid-1685974903925 .error-text{fill:#552222;stroke:#552222;}#mermaid-1685974903925 .edge-thickness-normal{stroke-width:2px;}#mermaid-1685974903925 .edge-thickness-thick{stroke-width:3.5px;}#mermaid-1685974903925 .edge-pattern-solid{stroke-dasharray:0;}#mermaid-1685974903925 .edge-pattern-dashed{stroke-dasharray:3;}#mermaid-1685974903925 .edge-pattern-dotted{stroke-dasharray:2;}#mermaid-1685974903925 .marker{fill:#333333;stroke:#333333;}#mermaid-1685974903925 .marker.cross{stroke:#333333;}#mermaid-1685974903925 svg{font-family:"trebuchet ms",verdana,arial,sans-serif;font-size:16px;}#mermaid-1685974903925 .entityBox{fill:#ECECFF;stroke:#9370DB;}#mermaid-1685974903925 .attributeBoxOdd{fill:#ffffff;stroke:#9370DB;}#mermaid-1685974903925 .attributeBoxEven{fill:#f2f2f2;stroke:#9370DB;}#mermaid-1685974903925 .relationshipLabelBox{fill:hsl(80, 100%, 96.2745098039%);opacity:0.7;background-color:hsl(80, 100%, 96.2745098039%);}#mermaid-1685974903925 .relationshipLabelBox rect{opacity:0.5;}#mermaid-1685974903925 .relationshipLine{stroke:#333333;}#mermaid-1685974903925 .entityTitleText{text-anchor:middle;font-size:18px;fill:#333;}#mermaid-1685974903925 :root{--mermaid-font-family:"trebuchet ms",verdana,arial,sans-serif;}</style><g/><defs><marker orient="auto" markerHeight="18" markerWidth="18" refY="9" refX="0" id="ONLY_ONE_START"><path d="M9,0 L9,18 M15,0 L15,18" fill="none" stroke="gray"/></marker></defs><defs><marker orient="auto" markerHeight="18" markerWidth="18" refY="9" refX="18" id="ONLY_ONE_END"><path d="M3,0 L3,18 M9,0 L9,18" fill="none" stroke="gray"/></marker></defs><defs><marker orient="auto" markerHeight="18" markerWidth="30" refY="9" refX="0" id="ZERO_OR_ONE_START"><circle r="6" cy="9" cx="21" fill="white" stroke="gray"/><path d="M9,0 L9,18" fill="none" stroke="gray"/></marker></defs><defs><marker orient="auto" markerHeight="18" markerWidth="30" refY="9" refX="30" id="ZERO_OR_ONE_END"><circle r="6" cy="9" cx="9" fill="white" stroke="gray"/><path d="M21,0 L21,18" fill="none" stroke="gray"/></marker></defs><defs><marker orient="auto" markerHeight="36" markerWidth="45" refY="18" refX="18" id="ONE_OR_MORE_START"><path d="M0,18 Q 18,0 36,18 Q 18,36 0,18 M42,9 L42,27" fill="none" stroke="gray"/></marker></defs><defs><marker orient="auto" markerHeight="36" markerWidth="45" refY="18" refX="27" id="ONE_OR_MORE_END"><path d="M3,9 L3,27 M9,18 Q27,0 45,18 Q27,36 9,18" fill="none" stroke="gray"/></marker></defs><defs><marker orient="auto" markerHeight="36" markerWidth="57" refY="18" refX="18" id="ZERO_OR_MORE_START"><circle r="6" cy="18" cx="48" fill="white" stroke="gray"/><path d="M0,18 Q18,0 36,18 Q18,36 0,18" fill="none" stroke="gray"/></marker></defs><defs><marker orient="auto" markerHeight="36" markerWidth="57" refY="18" refX="39" id="ZERO_OR_MORE_END"><circle r="6" cy="18" cx="9" fill="white" stroke="gray"/><path d="M21,18 Q39,0 57,18 Q39,36 21,18" fill="none" stroke="gray"/></marker></defs><path style="stroke: gray; fill: none;" marker-start="url(#ZERO_OR_MORE_START)" marker-end="url(#ONLY_ONE_END)" d="M364.3069152832031,240.54139486276628L375.9735819498698,236.70116238563855C387.64024861653644,232.86092990851088,410.9735819498698,225.18046495425543,425.5569152832031,221.34023247712773C440.14024861653644,217.5,445.9735819498698,217.5,451.8069152832031,224.75C457.64024861653644,232,463.4735819498698,246.5,463.4735819498698,261C463.4735819498698,275.5,457.64024861653644,290,451.8069152832031,297.25C445.9735819498698,304.5,440.14024861653644,304.5,425.5569152832031,300.6597675228723C410.9735819498698,296.81953504574454,387.64024861653644,289.13907009148915,375.9735819498698,285.2988376143614L364.3069152832031,281.4586051372337" class="er relationshipLine"/><path style="stroke: gray; fill: none;" marker-start="url(#ZERO_OR_MORE_START)" marker-end="url(#ONLY_ONE_END)" d="M224.47377014160156,96.19384531915512L200.39480845133463,106.32820443262926C176.31584676106772,116.46256354610341,128.15792338053384,136.7312817730517,104.07896169026692,158.6989742198592C80,180.66666666666666,80,204.33333333333334,80,216.16666666666666L80,228" class="er relationshipLine"/><path style="stroke: gray; fill: none;" marker-start="url(#ZERO_OR_MORE_START)" marker-end="url(#ONLY_ONE_END)" d="M302.15345764160156,107L302.15345764160156,115.33333333333333C302.15345764160156,123.66666666666667,302.15345764160156,140.33333333333334,302.15345764160156,158.75C302.15345764160156,177.16666666666666,302.15345764160156,197.33333333333334,302.15345764160156,207.41666666666666L302.15345764160156,217.5" class="er relationshipLine"/><path style="stroke: gray; fill: none;" marker-start="url(#ZERO_OR_MORE_START)" marker-end="url(#ONLY_ONE_END)" d="M379.83314514160156,86.04531375953817L420.57877349853516,97.87109479961515C461.32440185546875,109.69687583969211,542.8156585693359,133.34843791984608,583.5612869262695,153.50755229325637C624.3069152832031,173.66666666666666,624.3069152832031,190.33333333333334,624.3069152832031,198.66666666666666L624.3069152832031,207" class="er relationshipLine"/><g transform="translate(240,217.5 )" id="entity-CULTIVO-e4b9731a-f9ba-53ce-81f3-5f99d48f381b"><rect height="87" width="124.30691528320312" y="0" x="0" class="er entityBox"/><text style="dominant-baseline: middle; text-anchor: middle; font-size: 12px;" transform="translate(62.15345764160156,12)" y="0" x="0" id="text-entity-CULTIVO-e4b9731a-f9ba-53ce-81f3-5f99d48f381b" class="er entityLabel">CULTIVO</text><rect height="21" width="35.245819091796875" y="24" x="0" class="er attributeBoxOdd"/><text style="dominant-baseline: middle; font-size: 10.2px;" transform="translate(5,34.5)" y="0" x="0" id="text-entity-CULTIVO-e4b9731a-f9ba-53ce-81f3-5f99d48f381b-attr-1-type" class="er entityLabel">string</text><rect height="21" width="65.83816528320312" y="24" x="35.245819091796875" class="er attributeBoxOdd"/><text style="dominant-baseline: middle; font-size: 10.2px;" transform="translate(40.245819091796875,34.5)" y="0" x="0" id="text-entity-CULTIVO-e4b9731a-f9ba-53ce-81f3-5f99d48f381b-attr-1-name" class="er entityLabel">nombre</text><rect height="21" width="23.222930908203125" y="24" x="101.083984375" class="er attributeBoxOdd"/><text style="dominant-baseline: middle; font-size: 10.2px;" transform="translate(106.083984375,34.5)" y="0" x="0" id="text-entity-CULTIVO-e4b9731a-f9ba-53ce-81f3-5f99d48f381b-attr-1-key" class="er entityLabel">FK</text><rect height="21" width="35.245819091796875" y="45" x="0" class="er attributeBoxEven"/><text style="dominant-baseline: middle; font-size: 10.2px;" transform="translate(5,55.5)" y="0" x="0" id="text-entity-CULTIVO-e4b9731a-f9ba-53ce-81f3-5f99d48f381b-attr-2-type" class="er entityLabel">string</text><rect height="21" width="65.83816528320312" y="45" x="35.245819091796875" class="er attributeBoxEven"/><text style="dominant-baseline: middle; font-size: 10.2px;" transform="translate(40.245819091796875,55.5)" y="0" x="0" id="text-entity-CULTIVO-e4b9731a-f9ba-53ce-81f3-5f99d48f381b-attr-2-name" class="er entityLabel">descripcion</text><rect height="21" width="23.222930908203125" y="45" x="101.083984375" class="er attributeBoxEven"/><text style="dominant-baseline: middle; font-size: 10.2px;" transform="translate(106.083984375,55.5)" y="0" x="0" id="text-entity-CULTIVO-e4b9731a-f9ba-53ce-81f3-5f99d48f381b-attr-2-key" class="er entityLabel"/><rect height="21" width="35.245819091796875" y="66" x="0" class="er attributeBoxOdd"/><text style="dominant-baseline: middle; font-size: 10.2px;" transform="translate(5,76.5)" y="0" x="0" id="text-entity-CULTIVO-e4b9731a-f9ba-53ce-81f3-5f99d48f381b-attr-3-type" class="er entityLabel">string</text><rect height="21" width="65.83816528320312" y="66" x="35.245819091796875" class="er attributeBoxOdd"/><text style="dominant-baseline: middle; font-size: 10.2px;" transform="translate(40.245819091796875,76.5)" y="0" x="0" id="text-entity-CULTIVO-e4b9731a-f9ba-53ce-81f3-5f99d48f381b-attr-3-name" class="er entityLabel">es_variedad</text><rect height="21" width="23.222930908203125" y="66" x="101.083984375" class="er attributeBoxOdd"/><text style="dominant-baseline: middle; font-size: 10.2px;" transform="translate(106.083984375,76.5)" y="0" x="0" id="text-entity-CULTIVO-e4b9731a-f9ba-53ce-81f3-5f99d48f381b-attr-3-key" class="er entityLabel">FK</text></g><g transform="translate(20,228 )" id="entity-FENOLOGICO-df590e33-11fa-5254-9ad3-7d383a1cd677"><rect height="66" width="120" y="0" x="0" class="er entityBox"/><text style="dominant-baseline: middle; text-anchor: middle; font-size: 12px;" transform="translate(60,12)" y="0" x="0" id="text-entity-FENOLOGICO-df590e33-11fa-5254-9ad3-7d383a1cd677" class="er entityLabel">FENOLOGICO</text><rect height="21" width="35.245819091796875" y="24" x="0" class="er attributeBoxOdd"/><text style="dominant-baseline: middle; font-size: 10.2px;" transform="translate(5,34.5)" y="0" x="0" id="text-entity-FENOLOGICO-df590e33-11fa-5254-9ad3-7d383a1cd677-attr-1-type" class="er entityLabel">string</text><rect height="21" width="61.53125" y="24" x="35.245819091796875" class="er attributeBoxOdd"/><text style="dominant-baseline: middle; font-size: 10.2px;" transform="translate(40.245819091796875,34.5)" y="0" x="0" id="text-entity-FENOLOGICO-df590e33-11fa-5254-9ad3-7d383a1cd677-attr-1-name" class="er entityLabel">nombre</text><rect height="21" width="23.222930908203125" y="24" x="96.77706909179688" class="er attributeBoxOdd"/><text style="dominant-baseline: middle; font-size: 10.2px;" transform="translate(101.77706909179688,34.5)" y="0" x="0" id="text-entity-FENOLOGICO-df590e33-11fa-5254-9ad3-7d383a1cd677-attr-1-key" class="er entityLabel">FK</text><rect height="21" width="35.245819091796875" y="45" x="0" class="er attributeBoxEven"/><text style="dominant-baseline: middle; font-size: 10.2px;" transform="translate(5,55.5)" y="0" x="0" id="text-entity-FENOLOGICO-df590e33-11fa-5254-9ad3-7d383a1cd677-attr-2-type" class="er entityLabel">string</text><rect height="21" width="61.53125" y="45" x="35.245819091796875" class="er attributeBoxEven"/><text style="dominant-baseline: middle; font-size: 10.2px;" transform="translate(40.245819091796875,55.5)" y="0" x="0" id="text-entity-FENOLOGICO-df590e33-11fa-5254-9ad3-7d383a1cd677-attr-2-name" class="er entityLabel">descripcion</text><rect height="21" width="23.222930908203125" y="45" x="96.77706909179688" class="er attributeBoxEven"/><text style="dominant-baseline: middle; font-size: 10.2px;" transform="translate(101.77706909179688,55.5)" y="0" x="0" id="text-entity-FENOLOGICO-df590e33-11fa-5254-9ad3-7d383a1cd677-attr-2-key" class="er entityLabel"/></g><g transform="translate(224.47377014160156,20 )" id="entity-MIRARFENOLOGICO-059a82cc-d1ec-505c-9e2e-c63d973e53f3"><rect height="87" width="155.359375" y="0" x="0" class="er entityBox"/><text style="dominant-baseline: middle; text-anchor: middle; font-size: 12px;" transform="translate(77.6796875,12)" y="0" x="0" id="text-entity-MIRARFENOLOGICO-059a82cc-d1ec-505c-9e2e-c63d973e53f3" class="er entityLabel">MIRAR_FENOLOGICO</text><rect height="21" width="48.61607869466146" y="24" x="0" class="er attributeBoxOdd"/><text style="dominant-baseline: middle; font-size: 10.2px;" transform="translate(5,34.5)" y="0" x="0" id="text-entity-MIRARFENOLOGICO-059a82cc-d1ec-505c-9e2e-c63d973e53f3-attr-1-type" class="er entityLabel">string</text><rect height="21" width="70.15010579427083" y="24" x="48.61607869466146" class="er attributeBoxOdd"/><text style="dominant-baseline: middle; font-size: 10.2px;" transform="translate(53.61607869466146,34.5)" y="0" x="0" id="text-entity-MIRARFENOLOGICO-059a82cc-d1ec-505c-9e2e-c63d973e53f3-attr-1-name" class="er entityLabel">fenologico</text><rect height="21" width="36.59319051106771" y="24" x="118.76618448893228" class="er attributeBoxOdd"/><text style="dominant-baseline: middle; font-size: 10.2px;" transform="translate(123.76618448893228,34.5)" y="0" x="0" id="text-entity-MIRARFENOLOGICO-059a82cc-d1ec-505c-9e2e-c63d973e53f3-attr-1-key" class="er entityLabel">FK</text><rect height="21" width="48.61607869466146" y="45" x="0" class="er attributeBoxEven"/><text style="dominant-baseline: middle; font-size: 10.2px;" transform="translate(5,55.5)" y="0" x="0" id="text-entity-MIRARFENOLOGICO-059a82cc-d1ec-505c-9e2e-c63d973e53f3-attr-2-type" class="er entityLabel">string</text><rect height="21" width="70.15010579427083" y="45" x="48.61607869466146" class="er attributeBoxEven"/><text style="dominant-baseline: middle; font-size: 10.2px;" transform="translate(53.61607869466146,55.5)" y="0" x="0" id="text-entity-MIRARFENOLOGICO-059a82cc-d1ec-505c-9e2e-c63d973e53f3-attr-2-name" class="er entityLabel">parcela</text><rect height="21" width="36.59319051106771" y="45" x="118.76618448893228" class="er attributeBoxEven"/><text style="dominant-baseline: middle; font-size: 10.2px;" transform="translate(123.76618448893228,55.5)" y="0" x="0" id="text-entity-MIRARFENOLOGICO-059a82cc-d1ec-505c-9e2e-c63d973e53f3-attr-2-key" class="er entityLabel">FK</text><rect height="21" width="48.61607869466146" y="66" x="0" class="er attributeBoxOdd"/><text style="dominant-baseline: middle; font-size: 10.2px;" transform="translate(5,76.5)" y="0" x="0" id="text-entity-MIRARFENOLOGICO-059a82cc-d1ec-505c-9e2e-c63d973e53f3-attr-3-type" class="er entityLabel">string</text><rect height="21" width="70.15010579427083" y="66" x="48.61607869466146" class="er attributeBoxOdd"/><text style="dominant-baseline: middle; font-size: 10.2px;" transform="translate(53.61607869466146,76.5)" y="0" x="0" id="text-entity-MIRARFENOLOGICO-059a82cc-d1ec-505c-9e2e-c63d973e53f3-attr-3-name" class="er entityLabel">fecha</text><rect height="21" width="36.59319051106771" y="66" x="118.76618448893228" class="er attributeBoxOdd"/><text style="dominant-baseline: middle; font-size: 10.2px;" transform="translate(123.76618448893228,76.5)" y="0" x="0" id="text-entity-MIRARFENOLOGICO-059a82cc-d1ec-505c-9e2e-c63d973e53f3-attr-3-key" class="er entityLabel">FK</text></g><g transform="translate(574.3069152832031,207 )" id="entity-PARCELA-397a2d3f-8cad-5f6f-9c32-31c208451969"><rect height="108" width="100" y="0" x="0" class="er entityBox"/><text style="dominant-baseline: middle; text-anchor: middle; font-size: 12px;" transform="translate(50,12)" y="0" x="0" id="text-entity-PARCELA-397a2d3f-8cad-5f6f-9c32-31c208451969" class="er entityLabel">PARCELA</text><rect height="21" width="48.8671875" y="24" x="0" class="er attributeBoxOdd"/><text style="dominant-baseline: middle; font-size: 10.2px;" transform="translate(5,34.5)" y="0" x="0" id="text-entity-PARCELA-397a2d3f-8cad-5f6f-9c32-31c208451969-attr-1-type" class="er entityLabel">string</text><rect height="21" width="51.1328125" y="24" x="48.8671875" class="er attributeBoxOdd"/><text style="dominant-baseline: middle; font-size: 10.2px;" transform="translate(53.8671875,34.5)" y="0" x="0" id="text-entity-PARCELA-397a2d3f-8cad-5f6f-9c32-31c208451969-attr-1-name" class="er entityLabel">idx</text><rect height="21" width="48.8671875" y="45" x="0" class="er attributeBoxEven"/><text style="dominant-baseline: middle; font-size: 10.2px;" transform="translate(5,55.5)" y="0" x="0" id="text-entity-PARCELA-397a2d3f-8cad-5f6f-9c32-31c208451969-attr-2-type" class="er entityLabel">string</text><rect height="21" width="51.1328125" y="45" x="48.8671875" class="er attributeBoxEven"/><text style="dominant-baseline: middle; font-size: 10.2px;" transform="translate(53.8671875,55.5)" y="0" x="0" id="text-entity-PARCELA-397a2d3f-8cad-5f6f-9c32-31c208451969-attr-2-name" class="er entityLabel">estacion</text><rect height="21" width="48.8671875" y="66" x="0" class="er attributeBoxOdd"/><text style="dominant-baseline: middle; font-size: 10.2px;" transform="translate(5,76.5)" y="0" x="0" id="text-entity-PARCELA-397a2d3f-8cad-5f6f-9c32-31c208451969-attr-3-type" class="er entityLabel">float</text><rect height="21" width="51.1328125" y="66" x="48.8671875" class="er attributeBoxOdd"/><text style="dominant-baseline: middle; font-size: 10.2px;" transform="translate(53.8671875,76.5)" y="0" x="0" id="text-entity-PARCELA-397a2d3f-8cad-5f6f-9c32-31c208451969-attr-3-name" class="er entityLabel">altitud</text><rect height="21" width="48.8671875" y="87" x="0" class="er attributeBoxEven"/><text style="dominant-baseline: middle; font-size: 10.2px;" transform="translate(5,97.5)" y="0" x="0" id="text-entity-PARCELA-397a2d3f-8cad-5f6f-9c32-31c208451969-attr-4-type" class="er entityLabel">polygon</text><rect height="21" width="51.1328125" y="87" x="48.8671875" class="er attributeBoxEven"/><text style="dominant-baseline: middle; font-size: 10.2px;" transform="translate(53.8671875,97.5)" y="0" x="0" id="text-entity-PARCELA-397a2d3f-8cad-5f6f-9c32-31c208451969-attr-4-name" class="er entityLabel">geom</text></g><rect height="14" width="44.703125" y="254" x="441.12200927734375" class="er relationshipLabelBox"/><text style="text-anchor: middle; dominant-baseline: middle; font-size: 12px;" y="261" x="463.47357177734375" id="rel1" class="er relationshipLabel">contains</text><rect height="14" width="44.703125" y="134.185791015625" x="105.97286987304688" class="er relationshipLabelBox"/><text style="text-anchor: middle; dominant-baseline: middle; font-size: 12px;" y="141.185791015625" x="128.32443237304688" id="rel2" class="er relationshipLabel">contains</text><rect height="14" width="44.703125" y="155.25" x="279.8019104003906" class="er relationshipLabelBox"/><text style="text-anchor: middle; dominant-baseline: middle; font-size: 12px;" y="162.25" x="302.1534729003906" id="rel3" class="er relationshipLabel">contains</text><rect height="14" width="44.703125" y="120.64346313476562" x="495.08392333984375" class="er relationshipLabelBox"/><text style="text-anchor: middle; dominant-baseline: middle; font-size: 12px;" y="127.64346313476562" x="517.4354858398438" id="rel4" class="er relationshipLabel">contains</text></svg>